<?xml version="1.0" encoding="UTF-8" standalone="no"?>
<!-- Created with Inkscape (http://www.inkscape.org/) -->

<svg
   xmlns:dc="http://purl.org/dc/elements/1.1/"
   xmlns:cc="http://creativecommons.org/ns#"
   xmlns:rdf="http://www.w3.org/1999/02/22-rdf-syntax-ns#"
   xmlns:svg="http://www.w3.org/2000/svg"
   xmlns="http://www.w3.org/2000/svg"
   xmlns:sodipodi="http://sodipodi.sourceforge.net/DTD/sodipodi-0.dtd"
   xmlns:inkscape="http://www.inkscape.org/namespaces/inkscape"
   width="121.288mm"
   height="49.245354mm"
   viewBox="0 0 121.288 49.245353"
   version="1.1"
   id="svg63"
   inkscape:version="0.92.3 (2405546, 2018-03-11)"
   sodipodi:docname="awujo.403.svg">
  <defs
     id="defs57">
    <clipPath
       clipPathUnits="userSpaceOnUse"
       id="clipPath4664-0-6">
      <path
         style="font-style:normal;font-variant:normal;font-weight:normal;font-stretch:normal;font-size:medium;line-height:125%;font-family:Monoglyceride;-inkscape-font-specification:Monoglyceride;letter-spacing:0px;word-spacing:0px;fill:#a40000;fill-opacity:0.97647059;stroke:none;stroke-width:1px;stroke-linecap:butt;stroke-linejoin:miter;stroke-opacity:0.97647059"
         d="m -416.53816,429.33885 q 0,51.56241 -36.4828,88.0452 -36.48279,36.4828 -87.55872,36.4828 -51.5624,0 -88.0452,-36.4828 -36.48279,-36.48279 -36.48279,-88.0452 0,-51.07592 36.48279,-87.55872 36.4828,-36.48279 88.0452,-36.48279 51.07593,0 87.55872,36.48279 36.4828,36.4828 36.4828,87.55872 z"
         id="path4666-6-49"
         inkscape:connector-curvature="0"
         inkscape:export-filename="/var/www/html/awujo/resources/awujo.png"
         inkscape:export-xdpi="45"
         inkscape:export-ydpi="45" />
    </clipPath>
  </defs>
  <sodipodi:namedview
     id="base"
     pagecolor="#ffffff"
     bordercolor="#666666"
     borderopacity="1.0"
     inkscape:pageopacity="0.0"
     inkscape:pageshadow="2"
     inkscape:zoom="1.1638554"
     inkscape:cx="196.36227"
     inkscape:cy="84.757181"
     inkscape:document-units="mm"
     inkscape:current-layer="layer1"
     showgrid="false"
     fit-margin-top="0"
     fit-margin-left="0"
     fit-margin-right="0"
     fit-margin-bottom="0"
     inkscape:window-width="1366"
     inkscape:window-height="728"
     inkscape:window-x="0"
     inkscape:window-y="0"
     inkscape:window-maximized="1" />
  <metadata
     id="metadata60">
    <rdf:RDF>
      <cc:Work
         rdf:about="">
        <dc:format>image/svg+xml</dc:format>
        <dc:type
           rdf:resource="http://purl.org/dc/dcmitype/StillImage" />
        <dc:title></dc:title>
      </cc:Work>
    </rdf:RDF>
  </metadata>
  <g
     inkscape:label="Camada 1"
     inkscape:groupmode="layer"
     id="layer1"
     transform="translate(-280.29051,-122.73586)">
    <g
       id="g49"
       transform="translate(-42.861908)">
      <g
         inkscape:export-ydpi="250"
         inkscape:export-xdpi="250"
         inkscape:export-filename="/var/www/html/awujo.cciao.org/resources/img/awujo.logo.png"
         clip-path="url(#clipPath4664-0-6)"
         transform="matrix(0.14307467,0,0,0.14307467,418.31258,79.055543)"
         id="g4594-3-9">
        <path
           style="fill:#0d232e;fill-opacity:0.97647059;fill-rule:evenodd;stroke:none;stroke-width:1px;stroke-linecap:butt;stroke-linejoin:miter;stroke-opacity:1"
           d="m -502.19039,421.74815 c -1.95743,44.63576 -14.82673,98.31074 -70.40291,132.08236 30.19356,4.18898 54.95661,4.77976 78.44248,-4.76947 16.84889,-35.42663 14.6179,-86.52775 -8.03957,-127.31289 z"
           id="path4243-2-0"
           inkscape:connector-curvature="0"
           sodipodi:nodetypes="cccc" />
        <path
           style="fill:#19aeff;fill-opacity:0.97647059;fill-rule:evenodd;stroke:none;stroke-width:1px;stroke-linecap:butt;stroke-linejoin:miter;stroke-opacity:1"
           d="m -515.0862,400.41014 c 24.72226,37.2155 45.40449,88.43862 20.93538,148.6509 28.36244,-12.65861 47.24184,-28.98348 60.58915,-50.5386 -7.2643,-38.55078 -37.9472,-78.69004 -81.52453,-98.1123 z"
           id="path4243-7-0-8"
           inkscape:connector-curvature="0"
           sodipodi:nodetypes="cccc"
           inkscape:transform-center-x="-19.847901"
           inkscape:transform-center-y="-74.279275" />
        <path
           style="fill:#006400;fill-opacity:0.97647059;fill-rule:evenodd;stroke:none;stroke-width:1px;stroke-linecap:butt;stroke-linejoin:miter;stroke-opacity:1"
           d="m -537.91671,390.60436 c 41.88228,15.55822 88.73139,44.82959 104.35504,107.91808 17.00096,-28.20197 19.66798,-48.99183 19.03531,-76.52481 -28.54832,-26.90587 -77.6206,-40.44416 -123.39035,-31.39327 z"
           id="path4243-7-5-6-9"
           inkscape:connector-curvature="0"
           sodipodi:nodetypes="cccc"
           inkscape:transform-center-x="42.360272"
           inkscape:transform-center-y="-55.326909" />
        <path
           style="fill:#99cc32;fill-opacity:0.97647059;fill-rule:evenodd;stroke:none;stroke-width:1px;stroke-linecap:butt;stroke-linejoin:miter;stroke-opacity:1"
           d="m -560.49623,398.19875 c 42.84668,-12.66278 95.63705,-17.32123 145.96987,23.79888 -3.30512,-32.7637 -11.18112,-51.14981 -28.19693,-72.80455 -45.69763,-2.9997 -86.57147,14.31768 -117.77294,49.00567 z"
           id="path4243-7-5-9-1-3"
           inkscape:connector-curvature="0"
           sodipodi:nodetypes="cccc"
           inkscape:transform-center-x="73.983285"
           inkscape:transform-center-y="-36.774462" />
        <path
           style="fill:#b50000;fill-opacity:0.97647059;fill-rule:evenodd;stroke:none;stroke-width:1px;stroke-linecap:butt;stroke-linejoin:miter;stroke-opacity:1"
           d="m -574.97937,415.43092 c 27.29949,-35.36837 67.34699,-70.07748 132.22854,-66.25106 -21.87719,-24.61245 -39.01542,-34.89325 -65.49304,-42.46962 -34.17298,19.26499 -61.77879,62.32866 -66.7355,108.72068 z"
           id="path4243-7-5-9-2-5-1"
           inkscape:connector-curvature="0"
           sodipodi:nodetypes="cccc"
           inkscape:transform-center-x="66.95451"
           inkscape:transform-center-y="12.43117" />
        <path
           style="fill:#ffbd00;fill-opacity:1;fill-rule:evenodd;stroke:none;stroke-width:1px;stroke-linecap:butt;stroke-linejoin:miter;stroke-opacity:1"
           d="m -576.34621,438.24134 c 1.24476,-44.66132 13.41442,-96.42234 68.11299,-131.52681 -32.17404,-7.01535 -52.04982,-5.23574 -77.91294,4.22812 -16.28132,35.69104 -14.75559,86.88038 9.79995,127.29869 z"
           id="path4243-7-5-9-2-2-5-4"
           inkscape:connector-curvature="0"
           sodipodi:nodetypes="cccc"
           inkscape:transform-center-x="44.447234"
           inkscape:transform-center-y="64.498614" />
        <path
           style="fill:#354e59;fill-opacity:0.97647059;fill-rule:evenodd;stroke:none;stroke-width:1px;stroke-linecap:butt;stroke-linejoin:miter;stroke-opacity:1"
           d="m -563.91821,458.53164 c -25.39654,-36.75865 -45.58278,-86.94347 -22.21534,-147.59181 -30.09784,13.36054 -45.0656,26.55937 -60.33187,49.48112 6.2158,40.91195 36.85709,80.28671 82.54721,98.11069 z"
           id="path4243-7-5-9-2-2-8-4-8"
           inkscape:connector-curvature="0"
           sodipodi:nodetypes="cccc"
           inkscape:transform-center-x="18.45839"
           inkscape:transform-center-y="74.019948" />
        <path
           style="fill:#6599ff;fill-opacity:0.97647059;fill-rule:evenodd;stroke:none;stroke-width:1px;stroke-linecap:butt;stroke-linejoin:miter;stroke-opacity:1"
           d="m -543.17183,466.99226 c -44.46612,-16.33061 -88.05717,-39.8457 -103.27309,-106.59846 -16.84759,28.29386 -21.45706,47.71001 -20.67493,75.23916 28.70991,29.80209 76.35715,43.20797 123.94802,31.3593 z"
           id="path4243-7-5-9-2-2-8-9-76-96"
           inkscape:connector-curvature="0"
           sodipodi:nodetypes="cccc"
           inkscape:transform-center-x="-41.950242"
           inkscape:transform-center-y="55.846776" />
        <path
           style="fill:#4c0f00;fill-opacity:0.97647059;fill-rule:evenodd;stroke:none;stroke-width:1px;stroke-linecap:butt;stroke-linejoin:miter;stroke-opacity:1"
           d="m -518.5324,461.1115 c -45.56377,12.95634 -97.01003,19.54618 -148.58745,-25.47854 3.02343,32.7909 10.71876,51.19152 27.54785,72.99169 40.74903,7.20692 89.52827,-9.93233 121.0396,-47.51315 z"
           id="path4243-7-5-9-2-2-8-9-7-5-7"
           inkscape:connector-curvature="0"
           sodipodi:nodetypes="cccc"
           inkscape:transform-center-x="-73.872955"
           inkscape:transform-center-y="37.389847" />
        <path
           style="fill:#9eabb0;fill-opacity:0.97647059;fill-rule:evenodd;stroke:none;stroke-width:1px;stroke-linecap:butt;stroke-linejoin:miter;stroke-opacity:1"
           d="m -504.06428,444.07973 c -29.53248,37.03723 -67.45244,71.17307 -135.59523,64.53868 21.52872,24.91783 40.69781,37.26393 67.06621,45.2121 37.34126,-17.83407 64.74851,-60.85303 68.52902,-109.75078 z"
           id="path4243-7-5-9-2-2-8-9-7-3-6-7"
           inkscape:connector-curvature="0"
           sodipodi:nodetypes="cccc"
           inkscape:transform-center-x="-67.42557"
           inkscape:transform-center-y="-11.027892" />
      </g>
      <g
         aria-label="403"
         style="font-style:normal;font-variant:normal;font-weight:bold;font-stretch:normal;font-size:48.68654633px;line-height:1.25;font-family:Roboto;-inkscape-font-specification:'Roboto Bold';text-align:center;letter-spacing:0px;word-spacing:0px;text-anchor:middle;fill:#000000;fill-opacity:1;stroke:none;stroke-width:3.04290915"
         id="text30">
        <path
           d="m 387.10052,146.67499 h 5.3964 v 2.40105 h -5.3964 v 8.74836 h -2.85273 v -8.74836 h -16.28432 v -1.61655 l 16.02282,-24.24818 h 3.11423 z m -15.64246,0 h 12.78973 v -19.77891 l -1.25996,2.18709 z"
           style="font-style:normal;font-variant:normal;font-weight:300;font-stretch:normal;font-family:Roboto;-inkscape-font-specification:'Roboto Light';stroke-width:3.04290915"
           id="path88" />
        <path
           d="m 417.50583,143.39436 q 0,7.322 -2.68631,11.12563 -2.68632,3.77987 -7.91632,3.77987 -5.13491,0 -7.86877,-3.70855 -2.73387,-3.73232 -2.80519,-10.84036 v -6.20468 q 0,-7.29823 2.71009,-11.05432 2.7101,-3.75609 7.91632,-3.75609 5.13491,0 7.845,3.63722 2.71009,3.61346 2.80518,10.67396 z m -2.85272,-6.20469 q 0,-5.94318 -1.94937,-8.98609 -1.92559,-3.04291 -5.84809,-3.04291 -3.85118,0 -5.80054,2.97159 -1.94937,2.9716 -1.99691,8.77214 v 6.799 q 0,5.91941 1.99691,9.05741 2.02068,3.138 5.84809,3.138 3.80363,0 5.753,-3.06668 1.97313,-3.06668 1.99691,-8.98609 z"
           style="font-style:normal;font-variant:normal;font-weight:300;font-stretch:normal;font-family:Roboto;-inkscape-font-specification:'Roboto Light';stroke-width:3.04290915"
           id="path90" />
        <path
           d="m 429.96274,138.97263 h 2.94782 q 2.44859,0 4.27909,-0.85582 1.8305,-0.87959 2.78141,-2.37727 0.97469,-1.52146 0.97469,-3.49459 0,-3.32819 -1.87805,-5.20623 -1.87805,-1.87805 -5.39641,-1.87805 -3.32818,0 -5.46773,1.97314 -2.11577,1.94936 -2.11577,5.15868 h -2.85273 q 0,-2.68632 1.35505,-4.89718 1.35504,-2.23464 3.75609,-3.44705 2.40104,-1.2124 5.32509,-1.2124 4.707,0 7.41709,2.56745 2.71009,2.56745 2.71009,7.03673 0,2.49613 -1.59277,4.61191 -1.569,2.092 -4.32664,3.138 3.23309,0.90336 4.89719,3.11422 1.66409,2.1871 1.66409,5.23 0,4.4455 -2.90028,7.1556 -2.90027,2.71009 -7.74991,2.71009 -3.09045,0 -5.68168,-1.23619 -2.56745,-1.23618 -3.99382,-3.44704 -1.40259,-2.23464 -1.40259,-5.18246 h 2.85273 q 0,3.30441 2.30595,5.39641 2.30596,2.06823 5.91941,2.06823 3.68478,0 5.72923,-1.87804 2.06823,-1.90182 2.06823,-5.4915 0,-3.47082 -2.23464,-5.30132 -2.21086,-1.8305 -6.5375,-1.8305 h -2.85273 z"
           style="font-style:normal;font-variant:normal;font-weight:300;font-stretch:normal;font-family:Roboto;-inkscape-font-specification:'Roboto Light';stroke-width:3.04290915"
           id="path92" />
      </g>
    </g>
    <g
       aria-label="ACESSO NÃO PERMITIDO"
       style="font-style:normal;font-variant:normal;font-weight:bold;font-stretch:normal;font-size:10.77273941px;line-height:1.25;font-family:Roboto;-inkscape-font-specification:'Roboto Bold';text-align:center;letter-spacing:0px;word-spacing:0px;text-anchor:middle;fill:#000000;fill-opacity:1;stroke:none;stroke-width:0.67329621"
       id="text34">
      <path
         d="m 285.23503,169.72988 h -3.47694 l -0.78902,2.14613 h -0.67856 l 2.89833,-7.65875 h 0.61544 l 2.89833,7.65875 h -0.6733 z m -3.27706,-0.55232 h 3.07192 l -1.53596,-4.17128 z"
         style="font-style:normal;font-variant:normal;font-weight:300;font-stretch:normal;font-family:Roboto;-inkscape-font-specification:'Roboto Light';stroke-width:0.67329621"
         id="path51" />
      <path
         d="m 293.19361,169.48791 q -0.13151,1.20983 -0.86793,1.85156 -0.73115,0.64174 -1.9515,0.64174 -0.85214,0 -1.50966,-0.42607 -0.65225,-0.42607 -1.00994,-1.20457 -0.35769,-0.78376 -0.36295,-1.78844 v -0.99417 q 0,-1.02046 0.35769,-1.80948 0.35769,-0.78902 1.02572,-1.21509 0.6733,-0.43133 1.54648,-0.43133 1.23087,0 1.94099,0.66804 0.71537,0.66277 0.8311,1.83578 h -0.65226 q -0.24197,-1.95151 -2.11983,-1.95151 -1.04151,0 -1.6622,0.7785 -0.61544,0.7785 -0.61544,2.15139 v 0.93631 q 0,1.32555 0.59966,2.11457 0.60491,0.78902 1.63064,0.78902 1.0152,0 1.53069,-0.48394 0.5155,-0.48919 0.63648,-1.46231 z"
         style="font-style:normal;font-variant:normal;font-weight:300;font-stretch:normal;font-family:Roboto;-inkscape-font-specification:'Roboto Light';stroke-width:0.67329621"
         id="path53" />
      <path
         d="m 299.00605,168.20444 h -3.58215 v 3.12451 h 4.11868 v 0.54706 h -4.76568 v -7.65875 h 4.73938 v 0.55232 h -4.09238 v 2.88781 h 3.58215 z"
         style="font-style:normal;font-variant:normal;font-weight:300;font-stretch:normal;font-family:Roboto;-inkscape-font-specification:'Roboto Light';stroke-width:0.67329621"
         id="path55" />
      <path
         d="m 305.23404,169.99288 q 0,-0.63647 -0.44711,-1.00468 -0.44712,-0.37347 -1.6359,-0.70486 -1.18879,-0.33665 -1.73585,-0.73116 -0.77849,-0.55757 -0.77849,-1.46231 0,-0.87844 0.72063,-1.4255 0.7259,-0.55231 1.85157,-0.55231 0.76272,0 1.36237,0.29457 0.60491,0.29456 0.9363,0.82058 0.33139,0.52601 0.33139,1.17301 h -0.65226 q 0,-0.78376 -0.53653,-1.25718 -0.53653,-0.47867 -1.44127,-0.47867 -0.87844,0 -1.3992,0.39451 -0.52075,0.38925 -0.52075,1.02047 0,0.58387 0.46815,0.95208 0.46815,0.36821 1.49914,0.65226 1.03098,0.27878 1.56226,0.58387 0.53127,0.29983 0.79954,0.72064 0.26826,0.42081 0.26826,0.99416 0,0.90474 -0.7259,1.4518 -0.72063,0.54705 -1.90416,0.54705 -0.81006,0 -1.48862,-0.28931 -0.67329,-0.2893 -1.02572,-0.81006 -0.34717,-0.52075 -0.34717,-1.19405 h 0.647 q 0,0.81006 0.60491,1.27822 0.60491,0.46815 1.6096,0.46815 0.89422,0 1.43601,-0.39451 0.5418,-0.39451 0.5418,-1.04677 z"
         style="font-style:normal;font-variant:normal;font-weight:300;font-stretch:normal;font-family:Roboto;-inkscape-font-specification:'Roboto Light';stroke-width:0.67329621"
         id="path57" />
      <path
         d="m 311.60931,169.99288 q 0,-0.63647 -0.44711,-1.00468 -0.44711,-0.37347 -1.6359,-0.70486 -1.18879,-0.33665 -1.73584,-0.73116 -0.7785,-0.55757 -0.7785,-1.46231 0,-0.87844 0.72064,-1.4255 0.72589,-0.55231 1.85156,-0.55231 0.76272,0 1.36237,0.29457 0.60492,0.29456 0.93631,0.82058 0.33138,0.52601 0.33138,1.17301 h -0.65225 q 0,-0.78376 -0.53654,-1.25718 -0.53653,-0.47867 -1.44127,-0.47867 -0.87844,0 -1.39919,0.39451 -0.52076,0.38925 -0.52076,1.02047 0,0.58387 0.46816,0.95208 0.46815,0.36821 1.49913,0.65226 1.03099,0.27878 1.56226,0.58387 0.53127,0.29983 0.79954,0.72064 0.26826,0.42081 0.26826,0.99416 0,0.90474 -0.72589,1.4518 -0.72064,0.54705 -1.90417,0.54705 -0.81006,0 -1.48861,-0.28931 -0.6733,-0.2893 -1.02573,-0.81006 -0.34717,-0.52075 -0.34717,-1.19405 h 0.647 q 0,0.81006 0.60491,1.27822 0.60492,0.46815 1.6096,0.46815 0.89422,0 1.43602,-0.39451 0.54179,-0.39451 0.54179,-1.04677 z"
         style="font-style:normal;font-variant:normal;font-weight:300;font-stretch:normal;font-family:Roboto;-inkscape-font-specification:'Roboto Light';stroke-width:0.67329621"
         id="path59" />
      <path
         d="m 319.31013,168.46218 q 0,1.05729 -0.36821,1.85683 -0.36294,0.79954 -1.0415,1.23087 -0.67856,0.43133 -1.56752,0.43133 -1.34133,0 -2.16717,-0.95734 -0.82584,-0.96261 -0.82584,-2.59325 v -0.78901 q 0,-1.04677 0.36821,-1.85157 0.37347,-0.81006 1.05202,-1.24139 0.67856,-0.43659 1.56226,-0.43659 0.8837,0 1.557,0.42607 0.67856,0.42607 1.04676,1.20457 0.36821,0.7785 0.38399,1.80422 z m -0.64699,-0.8311 q 0,-1.38341 -0.62596,-2.16717 -0.62595,-0.78376 -1.7148,-0.78376 -1.0678,0 -1.70428,0.78902 -0.63121,0.78376 -0.63121,2.19348 v 0.79953 q 0,1.36238 0.63121,2.16192 0.63122,0.79428 1.7148,0.79428 1.09937,0 1.7148,-0.78376 0.61544,-0.78902 0.61544,-2.19348 z"
         style="font-style:normal;font-variant:normal;font-weight:300;font-stretch:normal;font-family:Roboto;-inkscape-font-specification:'Roboto Light';stroke-width:0.67329621"
         id="path61" />
      <path
         d="m 329.28334,171.87601 h -0.647 l -4.40273,-6.55412 v 6.55412 h -0.65225 v -7.65875 h 0.65225 l 4.40799,6.55938 v -6.55938 h 0.64174 z"
         style="font-style:normal;font-variant:normal;font-weight:300;font-stretch:normal;font-family:Roboto;-inkscape-font-specification:'Roboto Light';stroke-width:0.67329621"
         id="path63" />
      <path
         d="m 335.47977,169.72988 h -3.47695 l -0.78902,2.14613 h -0.67855 l 2.89833,-7.65875 h 0.61543 l 2.89833,7.65875 h -0.6733 z m -3.27706,-0.55232 h 3.07191 l -1.53596,-4.17128 z m 3.34544,-6.81712 q 0,0.50497 -0.29983,0.81532 -0.29457,0.30508 -0.7259,0.30508 -0.39977,0 -0.78376,-0.2893 -0.37873,-0.28931 -0.67855,-0.28931 -0.24723,0 -0.41555,0.16306 -0.16307,0.16307 -0.16307,0.45764 l -0.47341,-0.0158 q 0,-0.48394 0.28405,-0.79954 0.28931,-0.31561 0.74168,-0.31561 0.25248,0 0.43133,0.0894 0.17884,0.0894 0.33664,0.19989 0.15781,0.11046 0.31561,0.19988 0.16307,0.0894 0.37873,0.0894 0.24197,0 0.41029,-0.17358 0.17359,-0.17359 0.17359,-0.46815 z"
         style="font-style:normal;font-variant:normal;font-weight:300;font-stretch:normal;font-family:Roboto;-inkscape-font-specification:'Roboto Light';stroke-width:0.67329621"
         id="path65" />
      <path
         d="m 343.67504,168.46218 q 0,1.05729 -0.36821,1.85683 -0.36295,0.79954 -1.0415,1.23087 -0.67856,0.43133 -1.56752,0.43133 -1.34133,0 -2.16717,-0.95734 -0.82584,-0.96261 -0.82584,-2.59325 v -0.78901 q 0,-1.04677 0.3682,-1.85157 0.37347,-0.81006 1.05203,-1.24139 0.67856,-0.43659 1.56226,-0.43659 0.8837,0 1.557,0.42607 0.67855,0.42607 1.04676,1.20457 0.36821,0.7785 0.38399,1.80422 z m -0.647,-0.8311 q 0,-1.38341 -0.62595,-2.16717 -0.62596,-0.78376 -1.7148,-0.78376 -1.06781,0 -1.70428,0.78902 -0.63122,0.78376 -0.63122,2.19348 v 0.79953 q 0,1.36238 0.63122,2.16192 0.63121,0.79428 1.7148,0.79428 1.09936,0 1.7148,-0.78376 0.61543,-0.78902 0.61543,-2.19348 z"
         style="font-style:normal;font-variant:normal;font-weight:300;font-stretch:normal;font-family:Roboto;-inkscape-font-specification:'Roboto Light';stroke-width:0.67329621"
         id="path67" />
      <path
         d="m 348.59326,168.75675 v 3.11926 h -0.647 v -7.65875 h 2.60902 q 1.19405,0 1.88313,0.61018 0.69434,0.61017 0.69434,1.67798 0,1.07832 -0.66804,1.66746 -0.66278,0.58387 -1.92521,0.58387 z m 0,-0.54705 h 1.96202 q 0.94157,0 1.43602,-0.44711 0.49445,-0.44711 0.49445,-1.24665 0,-0.79428 -0.49445,-1.26243 -0.48919,-0.47341 -1.39393,-0.48393 h -2.00411 z"
         style="font-style:normal;font-variant:normal;font-weight:300;font-stretch:normal;font-family:Roboto;-inkscape-font-specification:'Roboto Light';stroke-width:0.67329621"
         id="path69" />
      <path
         d="m 358.80317,168.20444 h -3.58215 v 3.12451 h 4.11868 v 0.54706 h -4.76568 v -7.65875 h 4.73938 v 0.55232 h -4.09238 v 2.88781 h 3.58215 z"
         style="font-style:normal;font-variant:normal;font-weight:300;font-stretch:normal;font-family:Roboto;-inkscape-font-specification:'Roboto Light';stroke-width:0.67329621"
         id="path71" />
      <path
         d="m 363.55832,168.68837 h -2.22503 v 3.18764 h -0.65226 v -7.65875 h 2.48804 q 1.22561,0 1.91469,0.5944 0.68907,0.59439 0.68907,1.6622 0,0.73641 -0.43133,1.29925 -0.43133,0.56283 -1.15723,0.7785 l 1.91469,3.25602 v 0.0684 h -0.68908 z m -2.22503,-0.55231 h 1.98306 q 0.81532,0 1.30978,-0.46289 0.49445,-0.4629 0.49445,-1.19931 0,-0.81006 -0.51549,-1.25717 -0.5155,-0.44711 -1.44654,-0.44711 h -1.82526 z"
         style="font-style:normal;font-variant:normal;font-weight:300;font-stretch:normal;font-family:Roboto;-inkscape-font-specification:'Roboto Light';stroke-width:0.67329621"
         id="path73" />
      <path
         d="m 368.39238,164.21726 2.82468,6.75927 2.83521,-6.75927 h 0.86266 v 7.65875 h -0.64699 v -3.33492 l 0.0526,-3.41909 -2.85099,6.75401 h -0.49971 l -2.84047,-6.7277 0.0526,3.37174 v 3.35596 h -0.64699 v -7.65875 z"
         style="font-style:normal;font-variant:normal;font-weight:300;font-stretch:normal;font-family:Roboto;-inkscape-font-specification:'Roboto Light';stroke-width:0.67329621"
         id="path75" />
      <path
         d="m 377.64494,171.87601 h -0.64699 v -7.65875 h 0.64699 z"
         style="font-style:normal;font-variant:normal;font-weight:300;font-stretch:normal;font-family:Roboto;-inkscape-font-specification:'Roboto Light';stroke-width:0.67329621"
         id="path77" />
      <path
         d="m 384.76715,164.76958 h -2.6248 v 7.10643 h -0.647 v -7.10643 h -2.61954 v -0.55232 h 5.89134 z"
         style="font-style:normal;font-variant:normal;font-weight:300;font-stretch:normal;font-family:Roboto;-inkscape-font-specification:'Roboto Light';stroke-width:0.67329621"
         id="path79" />
      <path
         d="m 386.79756,171.87601 h -0.647 v -7.65875 h 0.647 z"
         style="font-style:normal;font-variant:normal;font-weight:300;font-stretch:normal;font-family:Roboto;-inkscape-font-specification:'Roboto Light';stroke-width:0.67329621"
         id="path81" />
      <path
         d="m 388.87005,171.87601 v -7.65875 h 2.14087 q 0.94157,0 1.6885,0.43133 0.74694,0.42607 1.16249,1.22561 0.42081,0.79954 0.42081,1.82001 v 0.70485 q 0,1.02573 -0.41555,1.82001 -0.41555,0.79428 -1.17301,1.22561 -0.75219,0.43133 -1.73058,0.43133 z m 0.647,-7.10643 v 6.55937 h 1.45179 q 1.20983,0 1.94099,-0.79954 0.73116,-0.80479 0.73116,-2.17243 v -0.67329 q 0,-1.3203 -0.72064,-2.11457 -0.72064,-0.79428 -1.89891,-0.79954 z"
         style="font-style:normal;font-variant:normal;font-weight:300;font-stretch:normal;font-family:Roboto;-inkscape-font-specification:'Roboto Light';stroke-width:0.67329621"
         id="path83" />
      <path
         d="m 401.57852,168.46218 q 0,1.05729 -0.36821,1.85683 -0.36295,0.79954 -1.04151,1.23087 -0.67855,0.43133 -1.56752,0.43133 -1.34133,0 -2.16717,-0.95734 -0.82584,-0.96261 -0.82584,-2.59325 v -0.78901 q 0,-1.04677 0.36821,-1.85157 0.37347,-0.81006 1.05203,-1.24139 0.67855,-0.43659 1.56225,-0.43659 0.88371,0 1.557,0.42607 0.67856,0.42607 1.04677,1.20457 0.36821,0.7785 0.38399,1.80422 z m -0.647,-0.8311 q 0,-1.38341 -0.62595,-2.16717 -0.62596,-0.78376 -1.71481,-0.78376 -1.0678,0 -1.70428,0.78902 -0.63121,0.78376 -0.63121,2.19348 v 0.79953 q 0,1.36238 0.63121,2.16192 0.63122,0.79428 1.7148,0.79428 1.09937,0 1.71481,-0.78376 0.61543,-0.78902 0.61543,-2.19348 z"
         style="font-style:normal;font-variant:normal;font-weight:300;font-stretch:normal;font-family:Roboto;-inkscape-font-specification:'Roboto Light';stroke-width:0.67329621"
         id="path85" />
    </g>
  </g>
</svg>
