<?xml version="1.0" encoding="UTF-8" standalone="no"?>
<!-- Created with Inkscape (http://www.inkscape.org/) -->

<svg
   xmlns:dc="http://purl.org/dc/elements/1.1/"
   xmlns:cc="http://creativecommons.org/ns#"
   xmlns:rdf="http://www.w3.org/1999/02/22-rdf-syntax-ns#"
   xmlns:svg="http://www.w3.org/2000/svg"
   xmlns="http://www.w3.org/2000/svg"
   xmlns:sodipodi="http://sodipodi.sourceforge.net/DTD/sodipodi-0.dtd"
   xmlns:inkscape="http://www.inkscape.org/namespaces/inkscape"
   width="35.563999mm"
   height="35.563999mm"
   viewBox="0 0 35.563999 35.563999"
   version="1.1"
   id="svg63"
   inkscape:version="0.92.3 (2405546, 2018-03-11)"
   sodipodi:docname="awujo.logo.round.svg">
  <defs
     id="defs57">
    <clipPath
       clipPathUnits="userSpaceOnUse"
       id="clipPath4664-0-6">
      <path
         style="font-style:normal;font-variant:normal;font-weight:normal;font-stretch:normal;font-size:medium;line-height:125%;font-family:Monoglyceride;-inkscape-font-specification:Monoglyceride;letter-spacing:0px;word-spacing:0px;fill:#a40000;fill-opacity:0.97647059;stroke:none;stroke-width:1px;stroke-linecap:butt;stroke-linejoin:miter;stroke-opacity:0.97647059"
         d="m -416.53816,429.33885 q 0,51.56241 -36.4828,88.0452 -36.48279,36.4828 -87.55872,36.4828 -51.5624,0 -88.0452,-36.4828 -36.48279,-36.48279 -36.48279,-88.0452 0,-51.07592 36.48279,-87.55872 36.4828,-36.48279 88.0452,-36.48279 51.07593,0 87.55872,36.48279 36.4828,36.4828 36.4828,87.55872 z"
         id="path4666-6-49"
         inkscape:connector-curvature="0"
         inkscape:export-filename="/var/www/html/awujo/resources/awujo.png"
         inkscape:export-xdpi="45"
         inkscape:export-ydpi="45" />
    </clipPath>
  </defs>
  <sodipodi:namedview
     id="base"
     pagecolor="#ffffff"
     bordercolor="#666666"
     borderopacity="1.0"
     inkscape:pageopacity="0.0"
     inkscape:pageshadow="2"
     inkscape:zoom="0.35"
     inkscape:cx="-821.36385"
     inkscape:cy="35.77899"
     inkscape:document-units="mm"
     inkscape:current-layer="layer1"
     showgrid="false"
     fit-margin-top="0"
     fit-margin-left="0"
     fit-margin-right="0"
     fit-margin-bottom="0"
     inkscape:window-width="1366"
     inkscape:window-height="728"
     inkscape:window-x="0"
     inkscape:window-y="0"
     inkscape:window-maximized="1" />
  <metadata
     id="metadata60">
    <rdf:RDF>
      <cc:Work
         rdf:about="">
        <dc:format>image/svg+xml</dc:format>
        <dc:type
           rdf:resource="http://purl.org/dc/dcmitype/StillImage" />
        <dc:title></dc:title>
      </cc:Work>
    </rdf:RDF>
  </metadata>
  <g
     inkscape:label="Camada 1"
     inkscape:groupmode="layer"
     id="layer1"
     transform="translate(-323.15252,-122.73586)">
    <g
       id="g4594-3-9"
       transform="matrix(0.14307467,0,0,0.14307467,418.31258,79.055541)"
       clip-path="url(#clipPath4664-0-6)"
       inkscape:export-filename="/var/www/html/awujo.cciao.org/resources/img/awujo.logo.png"
       inkscape:export-xdpi="250"
       inkscape:export-ydpi="250">
      <path
         sodipodi:nodetypes="cccc"
         inkscape:connector-curvature="0"
         id="path4243-2-0"
         d="m -502.19039,421.74815 c -1.95743,44.63576 -14.82673,98.31074 -70.40291,132.08236 30.19356,4.18898 54.95661,4.77976 78.44248,-4.76947 16.84889,-35.42663 14.6179,-86.52775 -8.03957,-127.31289 z"
         style="fill:#0d232e;fill-opacity:0.97647059;fill-rule:evenodd;stroke:none;stroke-width:1px;stroke-linecap:butt;stroke-linejoin:miter;stroke-opacity:1" />
      <path
         inkscape:transform-center-y="-74.279275"
         inkscape:transform-center-x="-19.847901"
         sodipodi:nodetypes="cccc"
         inkscape:connector-curvature="0"
         id="path4243-7-0-8"
         d="m -515.0862,400.41014 c 24.72226,37.2155 45.40449,88.43862 20.93538,148.6509 28.36244,-12.65861 47.24184,-28.98348 60.58915,-50.5386 -7.2643,-38.55078 -37.9472,-78.69004 -81.52453,-98.1123 z"
         style="fill:#19aeff;fill-opacity:0.97647059;fill-rule:evenodd;stroke:none;stroke-width:1px;stroke-linecap:butt;stroke-linejoin:miter;stroke-opacity:1" />
      <path
         inkscape:transform-center-y="-55.326909"
         inkscape:transform-center-x="42.360272"
         sodipodi:nodetypes="cccc"
         inkscape:connector-curvature="0"
         id="path4243-7-5-6-9"
         d="m -537.91671,390.60436 c 41.88228,15.55822 88.73139,44.82959 104.35504,107.91808 17.00096,-28.20197 19.66798,-48.99183 19.03531,-76.52481 -28.54832,-26.90587 -77.6206,-40.44416 -123.39035,-31.39327 z"
         style="fill:#006400;fill-opacity:0.97647059;fill-rule:evenodd;stroke:none;stroke-width:1px;stroke-linecap:butt;stroke-linejoin:miter;stroke-opacity:1" />
      <path
         inkscape:transform-center-y="-36.774462"
         inkscape:transform-center-x="73.983285"
         sodipodi:nodetypes="cccc"
         inkscape:connector-curvature="0"
         id="path4243-7-5-9-1-3"
         d="m -560.49623,398.19875 c 42.84668,-12.66278 95.63705,-17.32123 145.96987,23.79888 -3.30512,-32.7637 -11.18112,-51.14981 -28.19693,-72.80455 -45.69763,-2.9997 -86.57147,14.31768 -117.77294,49.00567 z"
         style="fill:#99cc32;fill-opacity:0.97647059;fill-rule:evenodd;stroke:none;stroke-width:1px;stroke-linecap:butt;stroke-linejoin:miter;stroke-opacity:1" />
      <path
         inkscape:transform-center-y="12.43117"
         inkscape:transform-center-x="66.95451"
         sodipodi:nodetypes="cccc"
         inkscape:connector-curvature="0"
         id="path4243-7-5-9-2-5-1"
         d="m -574.97937,415.43092 c 27.29949,-35.36837 67.34699,-70.07748 132.22854,-66.25106 -21.87719,-24.61245 -39.01542,-34.89325 -65.49304,-42.46962 -34.17298,19.26499 -61.77879,62.32866 -66.7355,108.72068 z"
         style="fill:#b50000;fill-opacity:0.97647059;fill-rule:evenodd;stroke:none;stroke-width:1px;stroke-linecap:butt;stroke-linejoin:miter;stroke-opacity:1" />
      <path
         inkscape:transform-center-y="64.498614"
         inkscape:transform-center-x="44.447234"
         sodipodi:nodetypes="cccc"
         inkscape:connector-curvature="0"
         id="path4243-7-5-9-2-2-5-4"
         d="m -576.34621,438.24134 c 1.24476,-44.66132 13.41442,-96.42234 68.11299,-131.52681 -32.17404,-7.01535 -52.04982,-5.23574 -77.91294,4.22812 -16.28132,35.69104 -14.75559,86.88038 9.79995,127.29869 z"
         style="fill:#ffbd00;fill-opacity:1;fill-rule:evenodd;stroke:none;stroke-width:1px;stroke-linecap:butt;stroke-linejoin:miter;stroke-opacity:1" />
      <path
         inkscape:transform-center-y="74.019948"
         inkscape:transform-center-x="18.45839"
         sodipodi:nodetypes="cccc"
         inkscape:connector-curvature="0"
         id="path4243-7-5-9-2-2-8-4-8"
         d="m -563.91821,458.53164 c -25.39654,-36.75865 -45.58278,-86.94347 -22.21534,-147.59181 -30.09784,13.36054 -45.0656,26.55937 -60.33187,49.48112 6.2158,40.91195 36.85709,80.28671 82.54721,98.11069 z"
         style="fill:#354e59;fill-opacity:0.97647059;fill-rule:evenodd;stroke:none;stroke-width:1px;stroke-linecap:butt;stroke-linejoin:miter;stroke-opacity:1" />
      <path
         inkscape:transform-center-y="55.846776"
         inkscape:transform-center-x="-41.950242"
         sodipodi:nodetypes="cccc"
         inkscape:connector-curvature="0"
         id="path4243-7-5-9-2-2-8-9-76-96"
         d="m -543.17183,466.99226 c -44.46612,-16.33061 -88.05717,-39.8457 -103.27309,-106.59846 -16.84759,28.29386 -21.45706,47.71001 -20.67493,75.23916 28.70991,29.80209 76.35715,43.20797 123.94802,31.3593 z"
         style="fill:#6599ff;fill-opacity:0.97647059;fill-rule:evenodd;stroke:none;stroke-width:1px;stroke-linecap:butt;stroke-linejoin:miter;stroke-opacity:1" />
      <path
         inkscape:transform-center-y="37.389847"
         inkscape:transform-center-x="-73.872955"
         sodipodi:nodetypes="cccc"
         inkscape:connector-curvature="0"
         id="path4243-7-5-9-2-2-8-9-7-5-7"
         d="m -518.5324,461.1115 c -45.56377,12.95634 -97.01003,19.54618 -148.58745,-25.47854 3.02343,32.7909 10.71876,51.19152 27.54785,72.99169 40.74903,7.20692 89.52827,-9.93233 121.0396,-47.51315 z"
         style="fill:#4c0f00;fill-opacity:0.97647059;fill-rule:evenodd;stroke:none;stroke-width:1px;stroke-linecap:butt;stroke-linejoin:miter;stroke-opacity:1" />
      <path
         inkscape:transform-center-y="-11.027892"
         inkscape:transform-center-x="-67.42557"
         sodipodi:nodetypes="cccc"
         inkscape:connector-curvature="0"
         id="path4243-7-5-9-2-2-8-9-7-3-6-7"
         d="m -504.06428,444.07973 c -29.53248,37.03723 -67.45244,71.17307 -135.59523,64.53868 21.52872,24.91783 40.69781,37.26393 67.06621,45.2121 37.34126,-17.83407 64.74851,-60.85303 68.52902,-109.75078 z"
         style="fill:#9eabb0;fill-opacity:0.97647059;fill-rule:evenodd;stroke:none;stroke-width:1px;stroke-linecap:butt;stroke-linejoin:miter;stroke-opacity:1" />
    </g>
  </g>
</svg>
