<?xml version="1.0" encoding="UTF-8" standalone="no"?>
<!-- Created with Inkscape (http://www.inkscape.org/) -->

<svg
   xmlns:dc="http://purl.org/dc/elements/1.1/"
   xmlns:cc="http://creativecommons.org/ns#"
   xmlns:rdf="http://www.w3.org/1999/02/22-rdf-syntax-ns#"
   xmlns:svg="http://www.w3.org/2000/svg"
   xmlns="http://www.w3.org/2000/svg"
   xmlns:sodipodi="http://sodipodi.sourceforge.net/DTD/sodipodi-0.dtd"
   xmlns:inkscape="http://www.inkscape.org/namespaces/inkscape"
   width="104.544mm"
   height="96.568596mm"
   viewBox="0 0 104.544 96.568596"
   version="1.1"
   id="svg6214"
   inkscape:version="0.92.3 (2405546, 2018-03-11)"
   sodipodi:docname="awujo.logo.svg">
  <defs
     id="defs6208">
    <clipPath
       clipPathUnits="userSpaceOnUse"
       id="clipPath4664-0-6">
      <path
         style="font-style:normal;font-variant:normal;font-weight:normal;font-stretch:normal;font-size:medium;line-height:125%;font-family:Monoglyceride;-inkscape-font-specification:Monoglyceride;letter-spacing:0px;word-spacing:0px;fill:#a40000;fill-opacity:0.97647059;stroke:none;stroke-width:1px;stroke-linecap:butt;stroke-linejoin:miter;stroke-opacity:0.97647059"
         d="m -416.53816,429.33885 q 0,51.56241 -36.4828,88.0452 -36.48279,36.4828 -87.55872,36.4828 -51.5624,0 -88.0452,-36.4828 -36.48279,-36.48279 -36.48279,-88.0452 0,-51.07592 36.48279,-87.55872 36.4828,-36.48279 88.0452,-36.48279 51.07593,0 87.55872,36.48279 36.4828,36.4828 36.4828,87.55872 z"
         id="path4666-6-49"
         inkscape:connector-curvature="0"
         inkscape:export-filename="/var/www/html/awujo/resources/awujo.png"
         inkscape:export-xdpi="45"
         inkscape:export-ydpi="45" />
    </clipPath>
    <clipPath
       clipPathUnits="userSpaceOnUse"
       id="clipPath4664-0-1">
      <path
         style="font-style:normal;font-variant:normal;font-weight:normal;font-stretch:normal;font-size:medium;line-height:125%;font-family:Monoglyceride;-inkscape-font-specification:Monoglyceride;letter-spacing:0px;word-spacing:0px;fill:#a40000;fill-opacity:0.97647059;stroke:none;stroke-width:1px;stroke-linecap:butt;stroke-linejoin:miter;stroke-opacity:0.97647059"
         d="m -416.53816,429.33885 q 0,51.56241 -36.4828,88.0452 -36.48279,36.4828 -87.55872,36.4828 -51.5624,0 -88.0452,-36.4828 -36.48279,-36.48279 -36.48279,-88.0452 0,-51.07592 36.48279,-87.55872 36.4828,-36.48279 88.0452,-36.48279 51.07593,0 87.55872,36.48279 36.4828,36.4828 36.4828,87.55872 z"
         id="path4666-6-2"
         inkscape:connector-curvature="0"
         inkscape:export-filename="/var/www/html/awujo/resources/awujo.png"
         inkscape:export-xdpi="45"
         inkscape:export-ydpi="45" />
    </clipPath>
  </defs>
  <sodipodi:namedview
     id="base"
     pagecolor="#ffffff"
     bordercolor="#666666"
     borderopacity="1.0"
     inkscape:pageopacity="0.0"
     inkscape:pageshadow="2"
     inkscape:zoom="0.5"
     inkscape:cx="-140.50024"
     inkscape:cy="-35.28326"
     inkscape:document-units="mm"
     inkscape:current-layer="text6311"
     showgrid="false"
     inkscape:window-width="1366"
     inkscape:window-height="728"
     inkscape:window-x="0"
     inkscape:window-y="0"
     inkscape:window-maximized="1"
     fit-margin-top="0"
     fit-margin-left="0"
     fit-margin-right="0"
     fit-margin-bottom="0" />
  <metadata
     id="metadata6211">
    <rdf:RDF>
      <cc:Work
         rdf:about="">
        <dc:format>image/svg+xml</dc:format>
        <dc:type
           rdf:resource="http://purl.org/dc/dcmitype/StillImage" />
        <dc:title></dc:title>
      </cc:Work>
    </rdf:RDF>
  </metadata>
  <g
     inkscape:label="Camada 1"
     inkscape:groupmode="layer"
     id="layer1"
     transform="translate(-27.367842,-61.584073)">
    <g
       aria-label="Gestão de Projetos
para o Terceiro Setor"
       style="font-style:normal;font-weight:normal;font-size:3.87732911px;line-height:0%;font-family:sans-serif;text-align:start;letter-spacing:0px;word-spacing:0px;text-anchor:start;fill:#0b232e;fill-opacity:0.97647059;stroke:none;stroke-width:0.32311079px;stroke-linecap:butt;stroke-linejoin:miter;stroke-opacity:1"
       id="text4870">
      <path
         d="m 37.635444,138.22961 -0.201945,0.25243 q -0.870884,1.01603 -2.549545,1.01603 -1.489339,0 -2.341291,-0.98448 -0.845642,-0.99079 -0.864574,-2.79566 v -1.80488 q 0,-1.93109 0.769912,-2.89032 0.776224,-0.96555 2.316048,-0.96555 1.312638,0 2.050996,0.73205 0.744669,0.73205 0.820399,2.08886 h -1.154869 q -0.06942,-0.85826 -0.479618,-1.33788 -0.403888,-0.48593 -1.230597,-0.48593 -0.990789,0 -1.451474,0.65001 -0.460685,0.64369 -0.479618,2.06361 v 1.8743 q 0,1.38837 0.530104,2.13304 0.530103,0.73835 1.520892,0.73835 0.933992,0 1.419921,-0.45437 l 0.17039,-0.15777 v -2.12041 h -1.678661 v -0.98448 h 2.83353 z"
         style="font-style:normal;font-variant:normal;font-weight:normal;font-stretch:normal;font-size:12.92442989px;line-height:1.25;font-family:'Roboto Condensed';-inkscape-font-specification:'Roboto Condensed, ';text-align:center;text-anchor:middle;fill:#0b232e;fill-opacity:0.97647059;stroke-width:0.32311079px"
         id="path172" />
      <path
         d="m 41.819475,139.49807 q -1.274773,0 -1.956334,-0.75729 -0.681562,-0.7636 -0.694184,-2.23401 v -0.82671 q 0,-1.5272 0.66263,-2.39177 0.66894,-0.87089 1.861673,-0.87089 1.199044,0 1.792255,0.7636 0.593211,0.76361 0.605833,2.37916 v 0.73205 h -3.811697 v 0.15777 q 0,1.09807 0.410199,1.59662 0.41651,0.49855 1.192733,0.49855 0.492239,0 0.864574,-0.18301 0.378645,-0.18933 0.706804,-0.59322 l 0.58059,0.70681 q -0.725737,1.02234 -2.215076,1.02234 z m -0.126215,-6.12143 q -0.694183,0 -1.028653,0.47962 -0.33447,0.4733 -0.378646,1.47671 h 2.688383 v -0.15146 q -0.04418,-0.97185 -0.353403,-1.38836 -0.302916,-0.41651 -0.927681,-0.41651 z"
         style="font-style:normal;font-variant:normal;font-weight:normal;font-stretch:normal;font-size:12.92442989px;line-height:1.25;font-family:'Roboto Condensed';-inkscape-font-specification:'Roboto Condensed, ';text-align:center;text-anchor:middle;fill:#0b232e;fill-opacity:0.97647059;stroke-width:0.32311079px"
         id="path174" />
      <path
         d="m 48.754998,137.62378 q 0,-0.35972 -0.271363,-0.61846 -0.271362,-0.25874 -1.047585,-0.60583 -0.902439,-0.37233 -1.274773,-0.63739 -0.366024,-0.26505 -0.549036,-0.59952 -0.183012,-0.34078 -0.183012,-0.80777 0,-0.83302 0.605833,-1.38206 0.612143,-0.55535 1.558756,-0.55535 0.9971,0 1.602933,0.58059 0.605832,0.58059 0.605832,1.48934 H 48.69189 q 0,-0.46068 -0.309227,-0.78253 -0.309227,-0.32816 -0.788845,-0.32816 -0.492239,0 -0.776223,0.25874 -0.277673,0.25243 -0.277673,0.68156 0,0.34078 0.201944,0.54904 0.208255,0.20825 0.990789,0.54903 1.243219,0.48593 1.691283,0.95293 0.448064,0.46068 0.448064,1.1738 0,0.88981 -0.612144,1.42623 -0.612143,0.5301 -1.640797,0.5301 -1.066517,0 -1.729147,-0.61214 -0.662629,-0.61214 -0.662629,-1.55245 h 1.123314 q 0.01893,0.56797 0.347092,0.88982 0.328159,0.32185 0.92137,0.32185 0.555347,0 0.845642,-0.24612 0.290295,-0.25243 0.290295,-0.67525 z"
         style="font-style:normal;font-variant:normal;font-weight:normal;font-stretch:normal;font-size:12.92442989px;line-height:1.25;font-family:'Roboto Condensed';-inkscape-font-specification:'Roboto Condensed, ';text-align:center;text-anchor:middle;fill:#0b232e;fill-opacity:0.97647059;stroke-width:0.32311079px"
         id="path176" />
      <path
         d="m 52.781259,130.8902 v 1.65342 h 1.028654 v 0.90244 h -1.028654 v 4.23451 q 0,0.40389 0.132526,0.61215 0.132526,0.20825 0.454375,0.20825 0.220876,0 0.448064,-0.0757 l -0.01262,0.94662 q -0.378645,0.12621 -0.776223,0.12621 -0.66263,0 -1.009721,-0.4733 -0.347092,-0.47331 -0.347092,-1.33789 v -4.24082 h -1.041275 v -0.90244 h 1.041275 v -1.65342 z"
         style="font-style:normal;font-variant:normal;font-weight:normal;font-stretch:normal;font-size:12.92442989px;line-height:1.25;font-family:'Roboto Condensed';-inkscape-font-specification:'Roboto Condensed, ';text-align:center;text-anchor:middle;fill:#0b232e;fill-opacity:0.97647059;stroke-width:0.32311079px"
         id="path178" />
      <path
         d="m 58.643952,139.37186 q -0.100972,-0.22088 -0.145147,-0.74467 -0.593211,0.87088 -1.514582,0.87088 -0.927681,0 -1.451474,-0.51748 -0.517482,-0.52379 -0.517482,-1.47041 0,-1.04127 0.706805,-1.65341 0.706805,-0.61215 1.937402,-0.62477 h 0.820399 v -0.72574 q 0,-0.61214 -0.271363,-0.87088 -0.271362,-0.25874 -0.826709,-0.25874 -0.50486,0 -0.820398,0.30291 -0.315538,0.29661 -0.315538,0.75729 h -1.117004 q 0,-0.52379 0.309227,-0.99709 0.309227,-0.47962 0.83302,-0.75098 0.523793,-0.27137 1.16749,-0.27137 1.047585,0 1.590311,0.5238 0.549035,0.51748 0.561657,1.51458 v 3.44567 q 0.0063,0.78884 0.214566,1.36943 v 0.10098 z m -1.489338,-0.88982 q 0.410199,0 0.782534,-0.22719 0.372334,-0.22718 0.542725,-0.56797 v -1.62817 h -0.631076 q -0.795155,0.0126 -1.255841,0.35971 -0.460685,0.34078 -0.460685,0.95924 0,0.58059 0.233498,0.84564 0.233498,0.25874 0.788845,0.25874 z m 2.259251,-8.60156 q 0,0.66263 -0.32816,1.09807 -0.328159,0.42913 -0.845641,0.42913 -0.220877,0 -0.378645,-0.0631 -0.157769,-0.0694 -0.4102,-0.25874 -0.25243,-0.19563 -0.366024,-0.23349 -0.113593,-0.0442 -0.258741,-0.0442 -0.214565,0 -0.359713,0.20194 -0.138836,0.20195 -0.138836,0.50486 l -0.725737,-0.0442 q 0,-0.68787 0.33447,-1.12332 0.33447,-0.43544 0.83302,-0.43544 0.189322,0 0.340781,0.0757 0.151458,0.0694 0.378645,0.2335 0.233498,0.16408 0.378645,0.2335 0.145148,0.0631 0.315538,0.0631 0.214566,0 0.359713,-0.20194 0.145148,-0.20825 0.145148,-0.51117 z"
         style="font-style:normal;font-variant:normal;font-weight:normal;font-stretch:normal;font-size:12.92442989px;line-height:1.25;font-family:'Roboto Condensed';-inkscape-font-specification:'Roboto Condensed, ';text-align:center;text-anchor:middle;fill:#0b232e;fill-opacity:0.97647059;stroke-width:0.32311079px"
         id="path180" />
      <path
         d="m 61.079905,135.6422 q 0,-1.48934 0.719426,-2.35391 0.725737,-0.87089 1.912159,-0.87089 1.186422,0 1.905849,0.84564 0.725737,0.84565 0.744669,2.30343 v 0.71943 q 0,1.48302 -0.719426,2.3476 -0.719427,0.86457 -1.91847,0.86457 -1.186423,0 -1.905849,-0.83933 -0.713115,-0.83933 -0.738358,-2.27187 z m 1.117004,0.6437 q 0,1.05389 0.410199,1.65973 0.41651,0.59952 1.117004,0.59952 1.476717,0 1.520892,-2.13304 v -0.76991 q 0,-1.04759 -0.41651,-1.65342 -0.41651,-0.61214 -1.117004,-0.61214 -0.687872,0 -1.104382,0.61214 -0.410199,0.60583 -0.410199,1.64711 z"
         style="font-style:normal;font-variant:normal;font-weight:normal;font-stretch:normal;font-size:12.92442989px;line-height:1.25;font-family:'Roboto Condensed';-inkscape-font-specification:'Roboto Condensed, ';text-align:center;text-anchor:middle;fill:#0b232e;fill-opacity:0.97647059;stroke-width:0.32311079px"
         id="path182" />
      <path
         d="m 70.520796,135.64851 q 0,-1.57769 0.5869,-2.4044 0.593211,-0.82671 1.697594,-0.82671 0.978167,0 1.527203,0.79516 v -3.53403 h 1.117004 v 9.69333 h -1.022343 l -0.0568,-0.73205 q -0.549035,0.85826 -1.571378,0.85826 -1.060207,0 -1.66604,-0.8204 -0.599522,-0.82671 -0.612143,-2.32867 z m 1.117004,0.63739 q 0,1.14855 0.340781,1.69128 0.340781,0.53641 1.110693,0.53641 0.83302,0 1.243219,-0.83933 v -3.44567 q -0.429132,-0.8204 -1.236908,-0.8204 -0.769913,0 -1.110694,0.54273 -0.34078,0.53641 -0.347091,1.65341 z"
         style="font-style:normal;font-variant:normal;font-weight:normal;font-stretch:normal;font-size:12.92442989px;line-height:1.25;font-family:'Roboto Condensed';-inkscape-font-specification:'Roboto Condensed, ';text-align:center;text-anchor:middle;fill:#0b232e;fill-opacity:0.97647059;stroke-width:0.32311079px"
         id="path184" />
      <path
         d="m 79.608288,139.49807 q -1.274772,0 -1.956334,-0.75729 -0.681562,-0.7636 -0.694183,-2.23401 v -0.82671 q 0,-1.5272 0.662629,-2.39177 0.66894,-0.87089 1.861673,-0.87089 1.199044,0 1.792255,0.7636 0.593211,0.76361 0.605833,2.37916 v 0.73205 h -3.811697 v 0.15777 q 0,1.09807 0.410199,1.59662 0.41651,0.49855 1.192733,0.49855 0.492239,0 0.864574,-0.18301 0.378645,-0.18933 0.706804,-0.59322 l 0.58059,0.70681 q -0.725737,1.02234 -2.215076,1.02234 z m -0.126215,-6.12143 q -0.694183,0 -1.028653,0.47962 -0.33447,0.4733 -0.378645,1.47671 h 2.688382 v -0.15146 q -0.04418,-0.97185 -0.353402,-1.38836 -0.302917,-0.41651 -0.927682,-0.41651 z"
         style="font-style:normal;font-variant:normal;font-weight:normal;font-stretch:normal;font-size:12.92442989px;line-height:1.25;font-family:'Roboto Condensed';-inkscape-font-specification:'Roboto Condensed, ';text-align:center;text-anchor:middle;fill:#0b232e;fill-opacity:0.97647059;stroke-width:0.32311079px"
         id="path186" />
      <path
         d="m 87.490424,135.77473 v 3.59713 h -1.154869 v -9.18847 h 2.928191 q 1.281084,0 2.013132,0.76992 0.732048,0.7636 0.732048,2.03837 0,1.32526 -0.700494,2.04469 -0.694184,0.71311 -1.962646,0.73836 z m 0,-0.99079 h 1.773322 q 0.769913,0 1.180112,-0.46069 0.410199,-0.46068 0.410199,-1.31895 0,-0.82671 -0.422821,-1.32526 -0.42282,-0.49855 -1.161179,-0.49855 h -1.779633 z"
         style="font-style:normal;font-variant:normal;font-weight:normal;font-stretch:normal;font-size:12.92442989px;line-height:1.25;font-family:'Roboto Condensed';-inkscape-font-specification:'Roboto Condensed, ';text-align:center;text-anchor:middle;fill:#0b232e;fill-opacity:0.97647059;stroke-width:0.32311079px"
         id="path188" />
      <path
         d="m 96.167712,133.5912 q -0.233498,-0.0442 -0.50486,-0.0442 -0.858263,0 -1.199044,0.9403 v 4.88453 h -1.117004 v -6.82824 h 1.08545 l 0.01893,0.69418 q 0.448063,-0.8204 1.268462,-0.8204 0.265051,0 0.441753,0.0884 z"
         style="font-style:normal;font-variant:normal;font-weight:normal;font-stretch:normal;font-size:12.92442989px;line-height:1.25;font-family:'Roboto Condensed';-inkscape-font-specification:'Roboto Condensed, ';text-align:center;text-anchor:middle;fill:#0b232e;fill-opacity:0.97647059;stroke-width:0.32311079px"
         id="path190" />
      <path
         d="m 96.925001,135.6422 q 0,-1.48934 0.719426,-2.35391 0.725737,-0.87089 1.91216,-0.87089 1.186423,0 1.905853,0.84564 0.72573,0.84565 0.74466,2.30343 v 0.71943 q 0,1.48302 -0.71942,2.3476 -0.71943,0.86457 -1.918472,0.86457 -1.186422,0 -1.905848,-0.83933 -0.713116,-0.83933 -0.738359,-2.27187 z m 1.117004,0.6437 q 0,1.05389 0.410199,1.65973 0.41651,0.59952 1.117004,0.59952 1.476722,0 1.520892,-2.13304 v -0.76991 q 0,-1.04759 -0.41651,-1.65342 -0.41651,-0.61214 -1.117003,-0.61214 -0.687873,0 -1.104383,0.61214 -0.410199,0.60583 -0.410199,1.64711 z"
         style="font-style:normal;font-variant:normal;font-weight:normal;font-stretch:normal;font-size:12.92442989px;line-height:1.25;font-family:'Roboto Condensed';-inkscape-font-specification:'Roboto Condensed, ';text-align:center;text-anchor:middle;fill:#0b232e;fill-opacity:0.97647059;stroke-width:0.32311079px"
         id="path192" />
      <path
         d="m 104.7882,132.54362 v 7.6865 q -0.0189,1.89954 -1.50196,1.89954 -0.34078,0 -0.61214,-0.1136 l -0.006,-0.93399 q 0.17039,0.0505 0.43544,0.0505 0.28399,0 0.42282,-0.21457 0.14515,-0.20825 0.14515,-0.73205 v -7.64232 z m 0.0505,-1.81119 q 0,0.28398 -0.15777,0.47331 -0.15777,0.18932 -0.47962,0.18932 -0.31553,0 -0.4733,-0.18932 -0.15146,-0.18933 -0.15146,-0.47331 0,-0.28398 0.15146,-0.47962 0.15777,-0.19563 0.4733,-0.19563 0.31554,0 0.47331,0.20194 0.16408,0.19564 0.16408,0.47331 z"
         style="font-style:normal;font-variant:normal;font-weight:normal;font-stretch:normal;font-size:12.92442989px;line-height:1.25;font-family:'Roboto Condensed';-inkscape-font-specification:'Roboto Condensed, ';text-align:center;text-anchor:middle;fill:#0b232e;fill-opacity:0.97647059;stroke-width:0.32311079px"
         id="path194" />
      <path
         d="m 108.99117,139.49807 q -1.27477,0 -1.95633,-0.75729 -0.68156,-0.7636 -0.69418,-2.23401 v -0.82671 q 0,-1.5272 0.66263,-2.39177 0.66894,-0.87089 1.86167,-0.87089 1.19904,0 1.79225,0.7636 0.59321,0.76361 0.60584,2.37916 v 0.73205 h -3.8117 v 0.15777 q 0,1.09807 0.4102,1.59662 0.41651,0.49855 1.19273,0.49855 0.49224,0 0.86457,-0.18301 0.37865,-0.18933 0.70681,-0.59322 l 0.58059,0.70681 q -0.72574,1.02234 -2.21508,1.02234 z m -0.12621,-6.12143 q -0.69418,0 -1.02866,0.47962 -0.33447,0.4733 -0.37864,1.47671 h 2.68838 v -0.15146 q -0.0442,-0.97185 -0.3534,-1.38836 -0.30292,-0.41651 -0.92768,-0.41651 z"
         style="font-style:normal;font-variant:normal;font-weight:normal;font-stretch:normal;font-size:12.92442989px;line-height:1.25;font-family:'Roboto Condensed';-inkscape-font-specification:'Roboto Condensed, ';text-align:center;text-anchor:middle;fill:#0b232e;fill-opacity:0.97647059;stroke-width:0.32311079px"
         id="path196" />
      <path
         d="m 114.07133,130.8902 v 1.65342 h 1.02866 v 0.90244 h -1.02866 v 4.23451 q 0,0.40389 0.13253,0.61215 0.13252,0.20825 0.45437,0.20825 0.22088,0 0.44807,-0.0757 l -0.0126,0.94662 q -0.37865,0.12621 -0.77623,0.12621 -0.66263,0 -1.00972,-0.4733 -0.34709,-0.47331 -0.34709,-1.33789 v -4.24082 h -1.04128 v -0.90244 h 1.04128 v -1.65342 z"
         style="font-style:normal;font-variant:normal;font-weight:normal;font-stretch:normal;font-size:12.92442989px;line-height:1.25;font-family:'Roboto Condensed';-inkscape-font-specification:'Roboto Condensed, ';text-align:center;text-anchor:middle;fill:#0b232e;fill-opacity:0.97647059;stroke-width:0.32311079px"
         id="path198" />
      <path
         d="m 116.05922,135.6422 q 0,-1.48934 0.71942,-2.35391 0.72574,-0.87089 1.91216,-0.87089 1.18643,0 1.90585,0.84564 0.72574,0.84565 0.74467,2.30343 v 0.71943 q 0,1.48302 -0.71943,2.3476 -0.71942,0.86457 -1.91847,0.86457 -1.18642,0 -1.90584,-0.83933 -0.71312,-0.83933 -0.73836,-2.27187 z m 1.117,0.6437 q 0,1.05389 0.4102,1.65973 0.41651,0.59952 1.117,0.59952 1.47672,0 1.5209,-2.13304 v -0.76991 q 0,-1.04759 -0.41651,-1.65342 -0.41651,-0.61214 -1.11701,-0.61214 -0.68787,0 -1.10438,0.61214 -0.4102,0.60583 -0.4102,1.64711 z"
         style="font-style:normal;font-variant:normal;font-weight:normal;font-stretch:normal;font-size:12.92442989px;line-height:1.25;font-family:'Roboto Condensed';-inkscape-font-specification:'Roboto Condensed, ';text-align:center;text-anchor:middle;fill:#0b232e;fill-opacity:0.97647059;stroke-width:0.32311079px"
         id="path200" />
      <path
         d="m 126.09963,137.62378 q 0,-0.35972 -0.27136,-0.61846 -0.27136,-0.25874 -1.04759,-0.60583 -0.90244,-0.37233 -1.27477,-0.63739 -0.36602,-0.26505 -0.54904,-0.59952 -0.18301,-0.34078 -0.18301,-0.80777 0,-0.83302 0.60583,-1.38206 0.61215,-0.55535 1.55876,-0.55535 0.9971,0 1.60293,0.58059 0.60584,0.58059 0.60584,1.48934 h -1.1107 q 0,-0.46068 -0.30922,-0.78253 -0.30923,-0.32816 -0.78885,-0.32816 -0.49224,0 -0.77622,0.25874 -0.27767,0.25243 -0.27767,0.68156 0,0.34078 0.20194,0.54904 0.20825,0.20825 0.99079,0.54903 1.24322,0.48593 1.69128,0.95293 0.44806,0.46068 0.44806,1.1738 0,0.88981 -0.61214,1.42623 -0.61214,0.5301 -1.6408,0.5301 -1.06651,0 -1.72914,-0.61214 -0.66263,-0.61214 -0.66263,-1.55245 h 1.12331 q 0.0189,0.56797 0.34709,0.88982 0.32816,0.32185 0.92137,0.32185 0.55535,0 0.84565,-0.24612 0.29029,-0.25243 0.29029,-0.67525 z"
         style="font-style:normal;font-variant:normal;font-weight:normal;font-stretch:normal;font-size:12.92442989px;line-height:1.25;font-family:'Roboto Condensed';-inkscape-font-specification:'Roboto Condensed, ';text-align:center;text-anchor:middle;fill:#0b232e;fill-opacity:0.97647059;stroke-width:0.32311079px"
         id="path202" />
      <path
         d="m 32.296543,152.44143 q 0,1.62187 -0.5869,2.41702 -0.58059,0.79516 -1.647108,0.79516 -1.028653,0 -1.584,-0.77622 v 3.27528 h -1.110693 v -9.45351 h 1.009721 l 0.0568,0.75729 q 0.561657,-0.88351 1.609243,-0.88351 1.123315,0 1.678661,0.78253 0.555347,0.78254 0.574279,2.34129 z m -1.110693,-0.63738 q 0,-1.14856 -0.353402,-1.69129 -0.353403,-0.54903 -1.135937,-0.54903 -0.801466,0 -1.217976,0.80147 v 3.55295 q 0.4102,0.78253 1.230598,0.78253 0.757291,0 1.110693,-0.54272 0.359713,-0.54904 0.366024,-1.67235 z"
         style="font-style:normal;font-variant:normal;font-weight:normal;font-stretch:normal;font-size:12.92442989px;line-height:1.25;font-family:'Roboto Condensed';-inkscape-font-specification:'Roboto Condensed, ';text-align:center;text-anchor:middle;fill:#0b232e;fill-opacity:0.97647059;stroke-width:0.32311079px"
         id="path204" />
      <path
         d="m 37.263109,155.52739 q -0.100972,-0.22087 -0.145147,-0.74467 -0.593212,0.87089 -1.514582,0.87089 -0.927681,0 -1.451474,-0.51748 -0.517482,-0.5238 -0.517482,-1.47041 0,-1.04127 0.706805,-1.65342 0.706804,-0.61214 1.937402,-0.62476 h 0.820398 v -0.72574 q 0,-0.61214 -0.271362,-0.87088 -0.271363,-0.25874 -0.826709,-0.25874 -0.504861,0 -0.820399,0.30291 -0.315538,0.29661 -0.315538,0.75729 h -1.117003 q 0,-0.52379 0.309227,-0.9971 0.309227,-0.47961 0.833019,-0.75098 0.523793,-0.27136 1.16749,-0.27136 1.047586,0 1.590311,0.52379 0.549036,0.51748 0.561658,1.51458 v 3.44568 q 0.0063,0.78884 0.214565,1.36943 v 0.10097 z m -1.489339,-0.88981 q 0.4102,0 0.782534,-0.22719 0.372335,-0.22719 0.542725,-0.56797 v -1.62817 h -0.631075 q -0.795156,0.0126 -1.255841,0.35971 -0.460685,0.34078 -0.460685,0.95923 0,0.58059 0.233498,0.84565 0.233498,0.25874 0.788844,0.25874 z"
         style="font-style:normal;font-variant:normal;font-weight:normal;font-stretch:normal;font-size:12.92442989px;line-height:1.25;font-family:'Roboto Condensed';-inkscape-font-specification:'Roboto Condensed, ';text-align:center;text-anchor:middle;fill:#0b232e;fill-opacity:0.97647059;stroke-width:0.32311079px"
         id="path206" />
      <path
         d="m 42.753467,149.74674 q -0.233498,-0.0442 -0.50486,-0.0442 -0.858263,0 -1.199044,0.9403 v 4.88452 h -1.117004 v -6.82823 h 1.08545 l 0.01893,0.69418 q 0.448063,-0.8204 1.268462,-0.8204 0.265052,0 0.441753,0.0884 z"
         style="font-style:normal;font-variant:normal;font-weight:normal;font-stretch:normal;font-size:12.92442989px;line-height:1.25;font-family:'Roboto Condensed';-inkscape-font-specification:'Roboto Condensed, ';text-align:center;text-anchor:middle;fill:#0b232e;fill-opacity:0.97647059;stroke-width:0.32311079px"
         id="path208" />
      <path
         d="m 47.133133,155.52739 q -0.100972,-0.22087 -0.145148,-0.74467 -0.593211,0.87089 -1.514581,0.87089 -0.927682,0 -1.451474,-0.51748 -0.517482,-0.5238 -0.517482,-1.47041 0,-1.04127 0.706804,-1.65342 0.706805,-0.61214 1.937403,-0.62476 h 0.820398 v -0.72574 q 0,-0.61214 -0.271362,-0.87088 -0.271363,-0.25874 -0.82671,-0.25874 -0.50486,0 -0.820398,0.30291 -0.315538,0.29661 -0.315538,0.75729 h -1.117004 q 0,-0.52379 0.309227,-0.9971 0.309227,-0.47961 0.83302,-0.75098 0.523793,-0.27136 1.16749,-0.27136 1.047586,0 1.590311,0.52379 0.549036,0.51748 0.561657,1.51458 v 3.44568 q 0.0063,0.78884 0.214566,1.36943 v 0.10097 z m -1.489339,-0.88981 q 0.410199,0 0.782534,-0.22719 0.372335,-0.22719 0.542725,-0.56797 v -1.62817 h -0.631076 q -0.795155,0.0126 -1.25584,0.35971 -0.460685,0.34078 -0.460685,0.95923 0,0.58059 0.233498,0.84565 0.233498,0.25874 0.788844,0.25874 z"
         style="font-style:normal;font-variant:normal;font-weight:normal;font-stretch:normal;font-size:12.92442989px;line-height:1.25;font-family:'Roboto Condensed';-inkscape-font-specification:'Roboto Condensed, ';text-align:center;text-anchor:middle;fill:#0b232e;fill-opacity:0.97647059;stroke-width:0.32311079px"
         id="path210" />
      <path
         d="m 52.522519,151.79774 q 0,-1.48934 0.719426,-2.35392 0.725737,-0.87088 1.91216,-0.87088 1.186422,0 1.905848,0.84564 0.725737,0.84564 0.744669,2.30343 v 0.71942 q 0,1.48303 -0.719426,2.34761 -0.719426,0.86457 -1.91847,0.86457 -1.186422,0 -1.905849,-0.83933 -0.713115,-0.83933 -0.738358,-2.27187 z m 1.117004,0.64369 q 0,1.0539 0.410199,1.65973 0.41651,0.59952 1.117004,0.59952 1.476717,0 1.520892,-2.13303 v -0.76991 q 0,-1.04759 -0.41651,-1.65342 -0.416509,-0.61214 -1.117003,-0.61214 -0.687873,0 -1.104383,0.61214 -0.410199,0.60583 -0.410199,1.64711 z"
         style="font-style:normal;font-variant:normal;font-weight:normal;font-stretch:normal;font-size:12.92442989px;line-height:1.25;font-family:'Roboto Condensed';-inkscape-font-specification:'Roboto Condensed, ';text-align:center;text-anchor:middle;fill:#0b232e;fill-opacity:0.97647059;stroke-width:0.32311079px"
         id="path212" />
      <path
         d="m 67.472701,147.33603 h -2.41702 v 8.19136 h -1.154868 v -8.19136 h -2.410709 v -0.9971 h 5.982597 z"
         style="font-style:normal;font-variant:normal;font-weight:normal;font-stretch:normal;font-size:12.92442989px;line-height:1.25;font-family:'Roboto Condensed';-inkscape-font-specification:'Roboto Condensed, ';text-align:center;text-anchor:middle;fill:#0b232e;fill-opacity:0.97647059;stroke-width:0.32311079px"
         id="path214" />
      <path
         d="m 70.495555,155.65361 q -1.274773,0 -1.956334,-0.75729 -0.681562,-0.7636 -0.694183,-2.23401 v -0.82671 q 0,-1.5272 0.662629,-2.39178 0.66894,-0.87088 1.861673,-0.87088 1.199044,0 1.792255,0.7636 0.593211,0.7636 0.605833,2.37916 v 0.73204 h -3.811697 v 0.15777 q 0,1.09808 0.410199,1.59663 0.41651,0.49854 1.192733,0.49854 0.492239,0 0.864574,-0.18301 0.378645,-0.18932 0.706804,-0.59321 l 0.58059,0.70681 q -0.725737,1.02234 -2.215076,1.02234 z m -0.126215,-6.12143 q -0.694183,0 -1.028653,0.47961 -0.33447,0.47331 -0.378646,1.47672 h 2.688383 v -0.15146 q -0.04417,-0.97185 -0.353403,-1.38836 -0.302916,-0.41651 -0.927681,-0.41651 z"
         style="font-style:normal;font-variant:normal;font-weight:normal;font-stretch:normal;font-size:12.92442989px;line-height:1.25;font-family:'Roboto Condensed';-inkscape-font-specification:'Roboto Condensed, ';text-align:center;text-anchor:middle;fill:#0b232e;fill-opacity:0.97647059;stroke-width:0.32311079px"
         id="path216" />
      <path
         d="m 76.932527,149.74674 q -0.233498,-0.0442 -0.50486,-0.0442 -0.858263,0 -1.199044,0.9403 v 4.88452 h -1.117004 v -6.82823 h 1.08545 l 0.01893,0.69418 q 0.448063,-0.8204 1.268462,-0.8204 0.265052,0 0.441753,0.0884 z"
         style="font-style:normal;font-variant:normal;font-weight:normal;font-stretch:normal;font-size:12.92442989px;line-height:1.25;font-family:'Roboto Condensed';-inkscape-font-specification:'Roboto Condensed, ';text-align:center;text-anchor:middle;fill:#0b232e;fill-opacity:0.97647059;stroke-width:0.32311079px"
         id="path218" />
      <path
         d="m 80.296159,154.70068 q 0.555346,0 0.889817,-0.34078 0.33447,-0.34709 0.366023,-0.98447 h 1.053897 q -0.03786,0.98447 -0.700494,1.63448 -0.656319,0.6437 -1.609243,0.6437 -1.268462,0 -1.937402,-0.79516 -0.66263,-0.80146 -0.66263,-2.37915 v -0.75098 q 0,-1.54614 0.66263,-2.3476 0.662629,-0.80778 1.931091,-0.80778 1.047586,0 1.659729,0.66263 0.618454,0.66263 0.656319,1.81119 h -1.053897 q -0.03786,-0.75729 -0.366023,-1.13594 -0.321849,-0.37864 -0.896128,-0.37864 -0.744669,0 -1.104382,0.49223 -0.359713,0.48593 -0.372335,1.60294 v 0.87088 q 0,1.20536 0.353402,1.70391 0.359714,0.49854 1.129626,0.49854 z"
         style="font-style:normal;font-variant:normal;font-weight:normal;font-stretch:normal;font-size:12.92442989px;line-height:1.25;font-family:'Roboto Condensed';-inkscape-font-specification:'Roboto Condensed, ';text-align:center;text-anchor:middle;fill:#0b232e;fill-opacity:0.97647059;stroke-width:0.32311079px"
         id="path220" />
      <path
         d="m 86.348175,155.65361 q -1.274773,0 -1.956335,-0.75729 -0.681562,-0.7636 -0.694183,-2.23401 v -0.82671 q 0,-1.5272 0.662629,-2.39178 0.66894,-0.87088 1.861673,-0.87088 1.199044,0 1.792255,0.7636 0.593211,0.7636 0.605833,2.37916 v 0.73204 H 84.80835 v 0.15777 q 0,1.09808 0.410199,1.59663 0.41651,0.49854 1.192733,0.49854 0.492239,0 0.864574,-0.18301 0.378645,-0.18932 0.706805,-0.59321 l 0.580589,0.70681 q -0.725737,1.02234 -2.215075,1.02234 z m -0.126216,-6.12143 q -0.694183,0 -1.028653,0.47961 -0.33447,0.47331 -0.378645,1.47672 h 2.688382 v -0.15146 q -0.04418,-0.97185 -0.353402,-1.38836 -0.302917,-0.41651 -0.927682,-0.41651 z"
         style="font-style:normal;font-variant:normal;font-weight:normal;font-stretch:normal;font-size:12.92442989px;line-height:1.25;font-family:'Roboto Condensed';-inkscape-font-specification:'Roboto Condensed, ';text-align:center;text-anchor:middle;fill:#0b232e;fill-opacity:0.97647059;stroke-width:0.32311079px"
         id="path222" />
      <path
         d="m 91.169593,155.52739 h -1.117004 v -6.82823 h 1.117004 z m 0.08835,-8.63942 q 0,0.28398 -0.157769,0.4733 -0.157769,0.18933 -0.479618,0.18933 -0.315538,0 -0.473307,-0.18933 -0.157769,-0.18932 -0.157769,-0.4733 0,-0.28399 0.157769,-0.47962 0.157769,-0.19563 0.473307,-0.19563 0.315538,0 0.473307,0.20194 0.16408,0.19563 0.16408,0.47331 z"
         style="font-style:normal;font-variant:normal;font-weight:normal;font-stretch:normal;font-size:12.92442989px;line-height:1.25;font-family:'Roboto Condensed';-inkscape-font-specification:'Roboto Condensed, ';text-align:center;text-anchor:middle;fill:#0b232e;fill-opacity:0.97647059;stroke-width:0.32311079px"
         id="path224" />
      <path
         d="m 95.738584,149.74674 q -0.233498,-0.0442 -0.50486,-0.0442 -0.858263,0 -1.199044,0.9403 v 4.88452 h -1.117004 v -6.82823 h 1.08545 l 0.01893,0.69418 q 0.448063,-0.8204 1.268462,-0.8204 0.265052,0 0.441753,0.0884 z"
         style="font-style:normal;font-variant:normal;font-weight:normal;font-stretch:normal;font-size:12.92442989px;line-height:1.25;font-family:'Roboto Condensed';-inkscape-font-specification:'Roboto Condensed, ';text-align:center;text-anchor:middle;fill:#0b232e;fill-opacity:0.97647059;stroke-width:0.32311079px"
         id="path226" />
      <path
         d="m 96.495869,151.79774 q 0,-1.48934 0.719427,-2.35392 0.725737,-0.87088 1.912159,-0.87088 1.186425,0 1.905845,0.84564 0.72574,0.84564 0.74467,2.30343 v 0.71942 q 0,1.48303 -0.71942,2.34761 -0.71943,0.86457 -1.918473,0.86457 -1.186423,0 -1.905849,-0.83933 -0.713116,-0.83933 -0.738359,-2.27187 z m 1.117004,0.64369 q 0,1.0539 0.4102,1.65973 0.41651,0.59952 1.117004,0.59952 1.476713,0 1.520893,-2.13303 v -0.76991 q 0,-1.04759 -0.41651,-1.65342 -0.416511,-0.61214 -1.117005,-0.61214 -0.687872,0 -1.104382,0.61214 -0.4102,0.60583 -0.4102,1.64711 z"
         style="font-style:normal;font-variant:normal;font-weight:normal;font-stretch:normal;font-size:12.92442989px;line-height:1.25;font-family:'Roboto Condensed';-inkscape-font-specification:'Roboto Condensed, ';text-align:center;text-anchor:middle;fill:#0b232e;fill-opacity:0.97647059;stroke-width:0.32311079px"
         id="path228" />
      <path
         d="m 110.34167,153.20504 q 0,-0.68788 -0.37233,-1.0539 -0.37234,-0.36602 -1.34419,-0.71312 -0.97186,-0.34709 -1.48934,-0.72573 -0.51117,-0.38496 -0.76991,-0.87089 -0.25243,-0.49224 -0.25243,-1.12331 0,-1.09176 0.72573,-1.79857 0.73205,-0.7068 1.91216,-0.7068 0.80778,0 1.43885,0.36602 0.63108,0.35971 0.97186,1.00341 0.34078,0.6437 0.34078,1.41361 h -1.16118 q 0,-0.85195 -0.4102,-1.31895 -0.4102,-0.46699 -1.18011,-0.46699 -0.70049,0 -1.08545,0.39126 -0.38495,0.39127 -0.38495,1.09808 0,0.58058 0.41651,0.97185 0.41651,0.39127 1.28739,0.7005 1.35681,0.44806 1.9374,1.10438 0.5869,0.65632 0.5869,1.71652 0,1.11701 -0.72573,1.79226 -0.72574,0.66894 -1.97527,0.66894 -0.80147,0 -1.48303,-0.34709 -0.67525,-0.3534 -1.06652,-0.98448 -0.38495,-0.63739 -0.38495,-1.45779 h 1.16118 q 0,0.85196 0.4733,1.32526 0.47962,0.47331 1.30002,0.47331 0.7636,0 1.14856,-0.39127 0.38495,-0.39126 0.38495,-1.06651 z"
         style="font-style:normal;font-variant:normal;font-weight:normal;font-stretch:normal;font-size:12.92442989px;line-height:1.25;font-family:'Roboto Condensed';-inkscape-font-specification:'Roboto Condensed, ';text-align:center;text-anchor:middle;fill:#0b232e;fill-opacity:0.97647059;stroke-width:0.32311079px"
         id="path230" />
      <path
         d="m 115.30193,155.65361 q -1.27478,0 -1.95634,-0.75729 -0.68156,-0.7636 -0.69418,-2.23401 v -0.82671 q 0,-1.5272 0.66263,-2.39178 0.66894,-0.87088 1.86167,-0.87088 1.19904,0 1.79225,0.7636 0.59322,0.7636 0.60584,2.37916 v 0.73204 h -3.8117 v 0.15777 q 0,1.09808 0.4102,1.59663 0.41651,0.49854 1.19273,0.49854 0.49224,0 0.86458,-0.18301 0.37864,-0.18932 0.7068,-0.59321 l 0.58059,0.70681 q -0.72574,1.02234 -2.21507,1.02234 z m -0.12622,-6.12143 q -0.69418,0 -1.02865,0.47961 -0.33447,0.47331 -0.37865,1.47672 h 2.68838 v -0.15146 q -0.0442,-0.97185 -0.3534,-1.38836 -0.30292,-0.41651 -0.92768,-0.41651 z"
         style="font-style:normal;font-variant:normal;font-weight:normal;font-stretch:normal;font-size:12.92442989px;line-height:1.25;font-family:'Roboto Condensed';-inkscape-font-specification:'Roboto Condensed, ';text-align:center;text-anchor:middle;fill:#0b232e;fill-opacity:0.97647059;stroke-width:0.32311079px"
         id="path232" />
      <path
         d="m 120.38208,147.04574 v 1.65342 h 1.02866 v 0.90243 h -1.02866 v 4.23452 q 0,0.40389 0.13253,0.61214 0.13253,0.20826 0.45437,0.20826 0.22088,0 0.44807,-0.0757 l -0.0126,0.94661 q -0.37865,0.12622 -0.77623,0.12622 -0.66263,0 -1.00972,-0.47331 -0.34709,-0.4733 -0.34709,-1.33788 v -4.24083 h -1.04127 v -0.90243 h 1.04127 v -1.65342 z"
         style="font-style:normal;font-variant:normal;font-weight:normal;font-stretch:normal;font-size:12.92442989px;line-height:1.25;font-family:'Roboto Condensed';-inkscape-font-specification:'Roboto Condensed, ';text-align:center;text-anchor:middle;fill:#0b232e;fill-opacity:0.97647059;stroke-width:0.32311079px"
         id="path234" />
      <path
         d="m 122.36998,151.79774 q 0,-1.48934 0.71942,-2.35392 0.72574,-0.87088 1.91216,-0.87088 1.18642,0 1.90585,0.84564 0.72574,0.84564 0.74467,2.30343 v 0.71942 q 0,1.48303 -0.71943,2.34761 -0.71942,0.86457 -1.91847,0.86457 -1.18642,0 -1.90584,-0.83933 -0.71312,-0.83933 -0.73836,-2.27187 z m 1.117,0.64369 q 0,1.0539 0.4102,1.65973 0.41651,0.59952 1.117,0.59952 1.47672,0 1.5209,-2.13303 v -0.76991 q 0,-1.04759 -0.41651,-1.65342 -0.41651,-0.61214 -1.11701,-0.61214 -0.68787,0 -1.10438,0.61214 -0.4102,0.60583 -0.4102,1.64711 z"
         style="font-style:normal;font-variant:normal;font-weight:normal;font-stretch:normal;font-size:12.92442989px;line-height:1.25;font-family:'Roboto Condensed';-inkscape-font-specification:'Roboto Condensed, ';text-align:center;text-anchor:middle;fill:#0b232e;fill-opacity:0.97647059;stroke-width:0.32311079px"
         id="path236" />
      <path
         d="m 131.91184,149.74674 q -0.2335,-0.0442 -0.50486,-0.0442 -0.85826,0 -1.19904,0.9403 v 4.88452 h -1.11701 v -6.82823 h 1.08545 l 0.0189,0.69418 q 0.44807,-0.8204 1.26847,-0.8204 0.26505,0 0.44175,0.0884 z"
         style="font-style:normal;font-variant:normal;font-weight:normal;font-stretch:normal;font-size:12.92442989px;line-height:1.25;font-family:'Roboto Condensed';-inkscape-font-specification:'Roboto Condensed, ';text-align:center;text-anchor:middle;fill:#0b232e;fill-opacity:0.97647059;stroke-width:0.32311079px"
         id="path238" />
    </g>
    <g
       id="g4594-3-9"
       transform="matrix(0.12916974,0,0,0.12916974,149.4978,22.148895)"
       clip-path="url(#clipPath4664-0-6)"
       inkscape:export-filename="/var/www/html/awujo.cciao.org/resources/img/awujo.logo.png"
       inkscape:export-xdpi="250"
       inkscape:export-ydpi="250">
      <path
         sodipodi:nodetypes="cccc"
         inkscape:connector-curvature="0"
         id="path4243-2-0"
         d="m -502.19039,421.74815 c -1.95743,44.63576 -14.82673,98.31074 -70.40291,132.08236 30.19356,4.18898 54.95661,4.77976 78.44248,-4.76947 16.84889,-35.42663 14.6179,-86.52775 -8.03957,-127.31289 z"
         style="fill:#0d232e;fill-opacity:0.97647059;fill-rule:evenodd;stroke:none;stroke-width:1px;stroke-linecap:butt;stroke-linejoin:miter;stroke-opacity:1" />
      <path
         inkscape:transform-center-y="-74.279275"
         inkscape:transform-center-x="-19.847901"
         sodipodi:nodetypes="cccc"
         inkscape:connector-curvature="0"
         id="path4243-7-0-8"
         d="m -515.0862,400.41014 c 24.72226,37.2155 45.40449,88.43862 20.93538,148.6509 28.36244,-12.65861 47.24184,-28.98348 60.58915,-50.5386 -7.2643,-38.55078 -37.9472,-78.69004 -81.52453,-98.1123 z"
         style="fill:#19aeff;fill-opacity:0.97647059;fill-rule:evenodd;stroke:none;stroke-width:1px;stroke-linecap:butt;stroke-linejoin:miter;stroke-opacity:1" />
      <path
         inkscape:transform-center-y="-55.326909"
         inkscape:transform-center-x="42.360272"
         sodipodi:nodetypes="cccc"
         inkscape:connector-curvature="0"
         id="path4243-7-5-6-9"
         d="m -537.91671,390.60436 c 41.88228,15.55822 88.73139,44.82959 104.35504,107.91808 17.00096,-28.20197 19.66798,-48.99183 19.03531,-76.52481 -28.54832,-26.90587 -77.6206,-40.44416 -123.39035,-31.39327 z"
         style="fill:#006400;fill-opacity:0.97647059;fill-rule:evenodd;stroke:none;stroke-width:1px;stroke-linecap:butt;stroke-linejoin:miter;stroke-opacity:1" />
      <path
         inkscape:transform-center-y="-36.774462"
         inkscape:transform-center-x="73.983285"
         sodipodi:nodetypes="cccc"
         inkscape:connector-curvature="0"
         id="path4243-7-5-9-1-3"
         d="m -560.49623,398.19875 c 42.84668,-12.66278 95.63705,-17.32123 145.96987,23.79888 -3.30512,-32.7637 -11.18112,-51.14981 -28.19693,-72.80455 -45.69763,-2.9997 -86.57147,14.31768 -117.77294,49.00567 z"
         style="fill:#99cc32;fill-opacity:0.97647059;fill-rule:evenodd;stroke:none;stroke-width:1px;stroke-linecap:butt;stroke-linejoin:miter;stroke-opacity:1" />
      <path
         inkscape:transform-center-y="12.43117"
         inkscape:transform-center-x="66.95451"
         sodipodi:nodetypes="cccc"
         inkscape:connector-curvature="0"
         id="path4243-7-5-9-2-5-1"
         d="m -574.97937,415.43092 c 27.29949,-35.36837 67.34699,-70.07748 132.22854,-66.25106 -21.87719,-24.61245 -39.01542,-34.89325 -65.49304,-42.46962 -34.17298,19.26499 -61.77879,62.32866 -66.7355,108.72068 z"
         style="fill:#b50000;fill-opacity:0.97647059;fill-rule:evenodd;stroke:none;stroke-width:1px;stroke-linecap:butt;stroke-linejoin:miter;stroke-opacity:1" />
      <path
         inkscape:transform-center-y="64.498614"
         inkscape:transform-center-x="44.447234"
         sodipodi:nodetypes="cccc"
         inkscape:connector-curvature="0"
         id="path4243-7-5-9-2-2-5-4"
         d="m -576.34621,438.24134 c 1.24476,-44.66132 13.41442,-96.42234 68.11299,-131.52681 -32.17404,-7.01535 -52.04982,-5.23574 -77.91294,4.22812 -16.28132,35.69104 -14.75559,86.88038 9.79995,127.29869 z"
         style="fill:#ffbd00;fill-opacity:1;fill-rule:evenodd;stroke:none;stroke-width:1px;stroke-linecap:butt;stroke-linejoin:miter;stroke-opacity:1" />
      <path
         inkscape:transform-center-y="74.019948"
         inkscape:transform-center-x="18.45839"
         sodipodi:nodetypes="cccc"
         inkscape:connector-curvature="0"
         id="path4243-7-5-9-2-2-8-4-8"
         d="m -563.91821,458.53164 c -25.39654,-36.75865 -45.58278,-86.94347 -22.21534,-147.59181 -30.09784,13.36054 -45.0656,26.55937 -60.33187,49.48112 6.2158,40.91195 36.85709,80.28671 82.54721,98.11069 z"
         style="fill:#354e59;fill-opacity:0.97647059;fill-rule:evenodd;stroke:none;stroke-width:1px;stroke-linecap:butt;stroke-linejoin:miter;stroke-opacity:1" />
      <path
         inkscape:transform-center-y="55.846776"
         inkscape:transform-center-x="-41.950242"
         sodipodi:nodetypes="cccc"
         inkscape:connector-curvature="0"
         id="path4243-7-5-9-2-2-8-9-76-96"
         d="m -543.17183,466.99226 c -44.46612,-16.33061 -88.05717,-39.8457 -103.27309,-106.59846 -16.84759,28.29386 -21.45706,47.71001 -20.67493,75.23916 28.70991,29.80209 76.35715,43.20797 123.94802,31.3593 z"
         style="fill:#6599ff;fill-opacity:0.97647059;fill-rule:evenodd;stroke:none;stroke-width:1px;stroke-linecap:butt;stroke-linejoin:miter;stroke-opacity:1" />
      <path
         inkscape:transform-center-y="37.389847"
         inkscape:transform-center-x="-73.872955"
         sodipodi:nodetypes="cccc"
         inkscape:connector-curvature="0"
         id="path4243-7-5-9-2-2-8-9-7-5-7"
         d="m -518.5324,461.1115 c -45.56377,12.95634 -97.01003,19.54618 -148.58745,-25.47854 3.02343,32.7909 10.71876,51.19152 27.54785,72.99169 40.74903,7.20692 89.52827,-9.93233 121.0396,-47.51315 z"
         style="fill:#4c0f00;fill-opacity:0.97647059;fill-rule:evenodd;stroke:none;stroke-width:1px;stroke-linecap:butt;stroke-linejoin:miter;stroke-opacity:1" />
      <path
         inkscape:transform-center-y="-11.027892"
         inkscape:transform-center-x="-67.42557"
         sodipodi:nodetypes="cccc"
         inkscape:connector-curvature="0"
         id="path4243-7-5-9-2-2-8-9-7-3-6-7"
         d="m -504.06428,444.07973 c -29.53248,37.03723 -67.45244,71.17307 -135.59523,64.53868 21.52872,24.91783 40.69781,37.26393 67.06621,45.2121 37.34126,-17.83407 64.74851,-60.85303 68.52902,-109.75078 z"
         style="fill:#9eabb0;fill-opacity:0.97647059;fill-rule:evenodd;stroke:none;stroke-width:1px;stroke-linecap:butt;stroke-linejoin:miter;stroke-opacity:1" />
    </g>
    <g
       aria-label="awujo"
       style="font-style:normal;font-variant:normal;font-weight:bold;font-stretch:normal;font-size:39.28538895px;line-height:1.25;font-family:monofur;-inkscape-font-specification:'monofur Bold';text-align:center;letter-spacing:0px;word-spacing:0px;text-anchor:middle;fill:#0e232e;fill-opacity:1;stroke:none;stroke-width:2.45533681"
       id="text6311">
      <path
         d="m 37.266097,98.242124 q 4.105016,0 7.001546,2.896526 2.89653,2.89653 2.89653,7.00155 v 8.72796 q 0,0.47955 -0.345282,0.82483 -0.345281,0.34529 -0.824839,0.34529 h -0.05755 q -0.479558,0 -0.82484,-0.34529 -0.345282,-0.34528 -0.345282,-0.82483 v -2.16761 q -3.759734,3.33773 -7.500286,3.33773 -4.105017,0 -7.001547,-2.89653 -2.89653,-2.89653 -2.89653,-7.00155 0,-4.10502 2.89653,-7.00155 2.89653,-2.896526 7.001547,-2.896526 z m 0,2.397786 q -3.107536,0 -5.313503,2.20597 -2.186784,2.20597 -2.186784,5.29432 0,3.10754 2.186784,5.3135 2.205967,2.18679 5.313503,2.18679 3.107535,0 5.29432,-2.18679 2.205966,-2.20596 2.205966,-5.3135 0,-3.08835 -2.205966,-5.29432 -2.167602,-2.20597 -5.29432,-2.20597 z"
         style="font-style:normal;font-variant:normal;font-weight:normal;font-stretch:normal;font-family:'Typo Round Light Demo';-inkscape-font-specification:'Typo Round Light Demo';fill:#0e232e;stroke-width:2.45533681"
         id="path161" />
      <path
         d="m 53.398426,109.96252 q 0,2.34024 1.668862,4.00911 1.668862,1.66886 4.009104,1.66886 2.340243,0 4.009105,-1.66886 1.668862,-1.66887 1.668862,-4.00911 V 99.431427 q 0,-0.49874 0.345282,-0.844022 0.345281,-0.345281 0.844022,-0.345281 h 0.03836 q 0.479558,0 0.82484,0.345281 0.345282,0.345282 0.345282,0.844022 v 10.531093 q 0,2.34024 1.668861,4.00911 1.668862,1.66886 4.009105,1.66886 2.359425,0 4.028287,-1.66886 1.668862,-1.66887 1.668862,-4.00911 V 99.431427 q 0,-0.49874 0.345281,-0.844022 0.345282,-0.345281 0.82484,-0.345281 h 0.03836 q 0.49874,0 0.844022,0.345281 0.326099,0.345282 0.326099,0.844022 v 10.531093 q 0,3.35691 -2.359425,5.71633 -2.359425,2.35943 -5.716331,2.35943 -3.989922,0 -6.86727,-3.75974 -2.89653,3.75974 -6.886453,3.75974 -3.356905,0 -5.716331,-2.35943 -2.359425,-2.35942 -2.359425,-5.71633 V 99.431427 q 0,-0.49874 0.345282,-0.844022 0.345282,-0.345281 0.82484,-0.345281 h 0.05755 q 0.479558,0 0.824839,0.345281 0.345282,0.345282 0.345282,0.844022 z"
         style="font-style:normal;font-variant:normal;font-weight:normal;font-stretch:normal;font-family:'Typo Round Light Demo';-inkscape-font-specification:'Typo Round Light Demo';fill:#0e232e;stroke-width:2.45533681"
         id="path163" />
      <path
         d="m 87.159304,109.92416 q 0,2.35942 1.668861,4.04747 1.688044,1.66886 4.066652,1.66886 2.359425,0 4.047469,-1.66886 1.668862,-1.68805 1.668862,-4.04747 V 99.431427 q 0,-0.49874 0.345282,-0.844022 0.345281,-0.345281 0.844022,-0.345281 h 0.03836 q 0.479554,0 0.824844,0.345281 0.34528,0.345282 0.34528,0.844022 v 10.492733 q 0,3.3569 -2.37861,5.73551 -2.378607,2.37861 -5.735513,2.37861 -3.376088,0 -5.754696,-2.37861 -2.378607,-2.37861 -2.378607,-5.73551 V 99.431427 q 0,-0.49874 0.345282,-0.844022 0.345281,-0.345281 0.824839,-0.345281 h 0.05755 q 0.479558,0 0.82484,0.345281 0.345282,0.345282 0.345282,0.844022 z"
         style="font-style:normal;font-variant:normal;font-weight:normal;font-stretch:normal;font-family:'Typo Round Light Demo';-inkscape-font-specification:'Typo Round Light Demo';fill:#0e232e;stroke-width:2.45533681"
         id="path165" />
      <path
         d="m 100.08819,125.92221 q -0.479558,0 -0.82484,-0.34528 -0.345282,-0.34528 -0.345282,-0.82484 v -0.0575 q 0,-0.47956 0.345282,-0.82484 0.345282,-0.34528 0.82484,-0.34528 h 1.11257 q 2.05251,0 3.45282,-1.43867 1.43868,-1.40031 1.45786,-3.472 V 99.431427 q 0,-0.49874 0.3261,-0.844022 0.34528,-0.345281 0.84402,-0.345281 h 0.0384 q 0.49874,0 0.84403,0.345281 0.3261,0.345282 0.3261,0.844022 v 19.182323 q -0.0384,3.06917 -2.12924,5.17922 -2.11006,2.12924 -5.16005,2.12924 z m 7.19337,-32.514031 q -0.6522,0 -1.09339,-0.441193 -0.4412,-0.441193 -0.4412,-1.093392 0,-0.633017 0.4412,-1.07421 0.44119,-0.441193 1.09339,-0.441193 0.63302,0 1.07421,0.441193 0.46037,0.460376 0.46037,1.07421 0,0.633016 -0.46037,1.093392 -0.44119,0.441193 -1.07421,0.441193 z"
         style="font-style:normal;font-variant:normal;font-weight:normal;font-stretch:normal;font-family:'Typo Round Light Demo';-inkscape-font-specification:'Typo Round Light Demo';fill:#0e232e;stroke-width:2.45533681"
         id="path167" />
      <path
         d="m 122.01358,100.67828 q -3.10754,0 -5.3135,2.20596 -2.18679,2.20597 -2.18679,5.31351 0,3.08835 2.18679,5.29432 2.20596,2.20596 5.3135,2.20596 3.12672,0 5.29432,-2.20596 2.20597,-2.20597 2.20597,-5.29432 0,-3.10754 -2.20597,-5.31351 -2.1676,-2.20596 -5.29432,-2.20596 z m 0,-2.436156 q 4.10502,0 7.00155,2.896526 2.89653,2.89653 2.89653,7.00155 0,4.10502 -2.89653,7.00155 -2.89653,2.89653 -7.00155,2.89653 -4.10502,0 -7.00155,-2.89653 -2.89653,-2.89653 -2.89653,-7.00155 0,-4.10502 2.89653,-7.00155 2.89653,-2.896526 7.00155,-2.896526 z"
         style="font-style:normal;font-variant:normal;font-weight:normal;font-stretch:normal;font-family:'Typo Round Light Demo';-inkscape-font-specification:'Typo Round Light Demo';fill:#0e232e;stroke-width:2.45533681"
         id="path169" />
    </g>
  </g>
</svg>
